<svg xmlns="http://www.w3.org/2000/svg" width="386" height="231" viewBox="0 0 386 231">
  <title>New Brand Logos</title>
  <g>
    <path d="M255.4,97.23h0c-.3,0-.62.1-1,.17l-9.17,33.1,1.8-.22c3.86-.48,6.07-2.39,7.14-6.23l6-21.55C261.11,99.11,260,96.62,255.4,97.23Z" fill="#fff"/>
    <path d="M235.42,60.42A177.61,177.61,0,0,0,249.16,20.9,5.79,5.79,0,0,0,248,15.43a3.88,3.88,0,0,0-.42-.39,3.85,3.85,0,0,0-.27-.3,4,4,0,0,0-.43-.4,2.35,2.35,0,0,0-.26-.29,4,4,0,0,0-.43-.4,3.65,3.65,0,0,0-.27-.3,3.22,3.22,0,0,0-.43-.39,2.43,2.43,0,0,0-.26-.3,4,4,0,0,0-.43-.4,2.35,2.35,0,0,0-.26-.29,4,4,0,0,0-.43-.4c-.09-.1-.17-.2-.27-.3a3.22,3.22,0,0,0-.43-.39,2.43,2.43,0,0,0-.26-.3,4,4,0,0,0-.43-.4,3.58,3.58,0,0,0-.26-.29,4,4,0,0,0-.43-.4c-.09-.1-.17-.2-.27-.3a3.22,3.22,0,0,0-.43-.39,2.43,2.43,0,0,0-.26-.3A5,5,0,0,0,237.36,7a11,11,0,0,0-1.91.22c-32.15,6.06-58.78,7.2-80.18,8.11-11.3.49-21.06.9-28.9,2-10.12,1.4-19.77,3.88-21.92,12.52L93.18,75.09a5.43,5.43,0,0,0,1.5,5.45l.18.15a5.29,5.29,0,0,0,.52.54l.18.15a4.3,4.3,0,0,0,.51.54l.18.16c.15.18.33.36.51.54l.18.15a5.29,5.29,0,0,0,.52.54l.18.15a4.3,4.3,0,0,0,.51.54l.18.16c.15.18.33.36.51.54l.18.15a5.29,5.29,0,0,0,.52.54l.18.15a4.3,4.3,0,0,0,.51.54l.18.16c.15.18.33.36.51.54l.18.15a5.29,5.29,0,0,0,.52.54,4.83,4.83,0,0,0,3.32,1.32,5.85,5.85,0,0,0,3.13-1c18.59-11.74,37.53-13.74,55.85-15.68,2.33-.24,4.64-.48,6.92-.74a315.59,315.59,0,0,0-40.12,57.83,331,331,0,0,0-31,81.07,5.55,5.55,0,0,0,1.21,5.45l.31.27c.12.15.25.28.38.42s.21.19.32.28a4.73,4.73,0,0,0,.38.41,4.12,4.12,0,0,0,.31.28,5,5,0,0,0,.38.42l.31.27c.12.15.25.28.38.42s.21.19.32.28a4.73,4.73,0,0,0,.38.41,4.12,4.12,0,0,0,.31.28,5,5,0,0,0,.38.42l.31.27c.12.15.25.28.38.42s.21.19.32.28a4.73,4.73,0,0,0,.38.41,4.12,4.12,0,0,0,.31.28,5,5,0,0,0,.38.42l.31.27c.12.15.25.28.38.42a4.85,4.85,0,0,0,3.46,1.39,7.35,7.35,0,0,0,1.93-.29c24.24-6.74,44.8-11.43,62.84-14.32A3.47,3.47,0,0,0,179,206.6a396.59,396.59,0,0,1,11.11-48.15,58.91,58.91,0,1,0,45.36-98ZM168.6,199.08c-19.92,3.19-41.12,8.26-63.21,14.4-.9.25-1.55.25-2-.24s-.48-1.2-.26-2.17c12-51.36,40.3-110.42,88.46-156.3-25.76,10.81-59.75,2.61-92.26,23.17-1.11.7-1.79.47-2.26,0a2,2,0,0,1-.49-2.06l11.28-45.3c1.51-6.1,8.5-8.47,19-9.92,22-3,59.46-.75,109.25-10.11,1.23-.24,1.88-.29,2.48.32a2.51,2.51,0,0,1,.27,2.32C234.66,32.39,228,47.32,220.33,62a59,59,0,0,0-39,83.53A392.47,392.47,0,0,0,168.6,199.08ZM208.73,144l.59-2.13a11.7,11.7,0,0,1-6.62,2.67A12.64,12.64,0,0,1,195,143.5c-3.6-2-4.92-6.34-3.19-12.58l9.05-32.67.66-2.38.59-.07,13.6-1.69-2,7.14-8,28.89c-.86,3.11-.87,5.53,3,5.05a4.94,4.94,0,0,0,2.71-.94l11.36-41L237,91.46l-14.06,50.8Zm65.08-41.27-5.9,21.32c-1.35,4.86-5,13.41-19.78,15.24l-5.49.69-4.18,15.1-14.2,1.77,18.31-66.11L256.76,89l-.59,2.13a19,19,0,0,1,7.12-3C270.81,87.19,276.68,92.38,273.81,102.75Z" fill="#fff"/>
  </g>
</svg>
