<svg xmlns="http://www.w3.org/2000/svg" width="386.15" height="232.83" viewBox="0 0 386.15 232.83">
  <title>Mtn Dew</title>
  <g>
    <g>
      <path d="M284.41,124.87a4.27,4.27,0,1,0,4.27,4.27v0a4.14,4.14,0,0,0-4-4.25A1,1,0,0,0,284.41,124.87Zm0,7.56a3.31,3.31,0,1,1,3.29-3.31,3.31,3.31,0,0,1-3.29,3.31Z" fill="#fff"/>
      <path d="M285.19,129.42a1.06,1.06,0,0,0,1.11-1,1.33,1.33,0,0,0,0-.2c0-1-.72-1.32-1.88-1.32H282.7v4.61h1v-2h.45l1.07,2h1.15Zm-.65-.7h-.85V127.6h.66c.39,0,.91,0,.91.53s-.27.59-.72.59Z" fill="#fff"/>
    </g>
    <path d="M370.25,10.43C348.36,33.3,310.35,75.58,266.78,131l0,0,0,0-1.06,1.4L154.35,178.93a26.83,26.83,0,0,1-7.17,2,16.91,16.91,0,0,1-4-.06l-1.85-.26L140,181.86l-.88.76c-4.28,3.62-9.54,6.67-16.56,9.61l-76.24,31.9,11.48-17.66C65,195.39,75.05,173,82.25,156.19l3.91-9.14L77,150.93,10.81,179,70.1,90.66l51.25-21.55L118.91,76l-3.12,8.75,8.5-3.75,53.56-23.63,1.57-.7L180,55l1.32-3.72L213,36.76l-2.44,6.86,8.35-3.5,63.55-26.63-4.31,13.13,0,.06v.05c-.09.29-.44,1.34-.84,2.56-1,3.07-2.74,8.21-4.44,13.75l-2.51,8.14,7.86-3.26L345.6,20l24.65-9.52M386.15,0l-42,16.23-67.44,28c2.47-8,5-15.24,5.29-16.35l7-21.45-71.63,30L220,29.17l-41.84,19.2-1.89,5.31L122.68,77.31l5.49-15.4L67.45,87.43,0,187.94l78.57-33.32c-6.88,16.08-17.06,38.74-24.16,49.67L35.86,232.83l88.2-36.91c7.42-3.1,13-6.35,17.6-10.25.33-.27.66-.56,1-.85a19.91,19.91,0,0,0,2.79.19c.71,0,1.43,0,2.15-.11a30.15,30.15,0,0,0,8.26-2.27l112.37-46.86,1.71-2.26C338.45,46.28,386.15,0,386.15,0Z" fill="#fff"/>
    <path d="M178.06,66.88c3.95-1.68,4.21,1.49,2,7.66l-5.75,16.84a19.21,19.21,0,0,0-1.32,6l-9.73,4.15s1.3-2.7,2.67-6.52l6.57-19.19c.61-1.7.46-2.14-.57-1.7l-3,1.3c-1,.44-1.6,1.18-2.21,2.89l-6.57,19.18a29.24,29.24,0,0,0-1.59,6.06l-9.63,4.11a53.8,53.8,0,0,0,2.82-6.59l7.07-20.54a23.3,23.3,0,0,0,1.45-6ZM147.76,79.7a22.86,22.86,0,0,1-1.45,6l-6.58,19.19c-.61,1.7-1.17,2.44-2.2,2.88l-3.06,1.3c-1,.45-1.17,0-.57-1.69l8.83-25.53-9.2,3.92a22.93,22.93,0,0,1-1.44,6l-5.75,16.85c-2.19,6.16-1.93,9.34,2,7.66l17.76-7.57a25.66,25.66,0,0,1,1.52-6L157,75.78Zm-22.28,9.63c3.76-1.61,3.91.52,1.87,6.28l-5.64,16.54c-2,5.76-4,8.8-7.8,10.4l-13.08,5.58c-3.77,1.61-3.91-.53-1.88-6.27l5.65-16.55c2-5.76,4-8.8,7.79-10.41Zm-6.27,9.15c.57-1.58.51-2.11-.49-1.69l-3.48,1.49c-.92.39-1.44,1.16-2,2.74l-6.15,18c-.56,1.58-.5,2.11.43,1.72l3.48-1.49c1-.42,1.5-1.2,2.07-2.78ZM95.89,88.79,74.42,129.12,86.76,92.69,75.38,97.58,36.58,155.4l10.14-4.26s1.29-3.23,1.79-4S69.67,115,69.67,115L59.16,145.58,72,140.21l17.88-33-9.07,25.94A39.58,39.58,0,0,1,79,137.19l12.87-5.34a32.24,32.24,0,0,1,.7-3.95l15-44.09ZM232.81,43.48c0,1.21-.13,2.21-1.48,6L224.27,70c-1.35,3.82-2.53,6.47-2.53,6.47l9.47-4.05a23.22,23.22,0,0,1,1.46-6L242,39.58ZM188.74,85.83c-1.5.64-1.51.25-.88-1.52l6.93-20.18,6.69-2.85,1.91-5.4-6.68,2.84,2.12-6-8.51,3.93-2,5.64-3.6,1.53-1.91,5.41,3.59-1.53-6.58,19.18c-2.44,6.88-.75,7.65,1.92,6.52l10.52-4.49L195,82.54a15.39,15.39,0,0,1-3.27,2ZM263.3,30.55l-17.85,7.61c0,1.19,0,2.12-1.32,5.91l-7,20.43c-1.34,3.79-2.36,6.36-2.36,6.36l9-3.83a40.75,40.75,0,0,1,1.74-6.09L252,41.87c.6-1.7,1.16-2.43,2.19-2.87l3-1.3c1-.43,1.17,0,.57,1.69l-6.54,19.08c-1.35,3.79-2.62,6.46-2.62,6.46l9.39-4a28.8,28.8,0,0,1,1.56-6l5.72-16.74c2.17-6.14,1.92-9.3-2-7.62M223.54,47.27c4-1.72,4.62.42,1.93,8l-6,17.66a16,16,0,0,0-1,4.82l-18.27,7.79c-3.77,1.61-3.93-.52-1.89-6.27l1.94-5.8c2.05-5.76,4.35-9.61,8.13-11.22L216,59c.93-.39,1.52-.79,2.21-3.33.36-1.26.42-1.7-.75-1.2L209.07,58a21,21,0,0,0-3.59,2.22l2.77-6.47Zm-8.26,16.88-3.74,1.59c-1.29.6-1.9,1.11-2.6,3.11l-2.37,7.29c-.71,2-.31,2.08.94,1.59l2-.84c1.6-.68,1.91-1.17,3.16-4.69Z" fill="#fff"/>
    <path d="M98.59,146.53c3.82-8.31,4.87-12.18,4.25-14.71l39.87-16.36c11.56-4.82,12.84.76,5.81,19l-10,28.51c-2.95,8.44-9.76,13.9-21.33,18.72l-42.3,17.62c2.37-3.93,4-7.45,7.64-16.13Zm5.22,28.19,10.82-4.51c3.4-1.41,4.39-2.89,6.72-8.91l8.47-21.94c2.32-6,2.29-7.08-1.11-5.65l-9,3.59ZM167.45,139l-2.22,6.11c-1.63,4.68-1.07,6.08,2.16,4.74l19.31-8.05a29.84,29.84,0,0,0,10.12-6.57l-7.19,16.17-40,16.67c-9,3.75-9.34-1.29-4.39-14.88l9.41-25.79c5-13.59,9.73-20.75,18.75-24.5l30.53-12.73c9-3.76,9.35,1.28,4.39,14.87l-7.28,20Zm18.69-18.6,3.22-8.87c1.38-3.74,1.26-5-1-4.06l-8.25,3.43c-2.21.92-3.45,2.73-4.81,6.47l-3.24,8.88Zm83.11-22.26-.21.09,15.25-41.64L256.54,68.18l-31,48.19-.17.08,10.11-28.21a67.19,67.19,0,0,1,3.42-8.35c1.11-2.22,2-3.67,3.24-5.7L218.48,84c-.55,4.23-.76,5.72-4.45,15.73l-17.88,48.84,21-8.75,37-57.53.2-.09L236,132l25-10.42,46.69-61.67a210.31,210.31,0,0,1,17.63-20.39l-20,8.31a21.6,21.6,0,0,1-2.59,5.55c-1.39,2.34-4.75,7-7.27,10.32Z" fill="#fff"/>
  </g>
</svg>
