<svg xmlns="http://www.w3.org/2000/svg" width="386" height="231" viewBox="0 0 386 231">
  <title>New Brand Logos</title>
  <g>
    <path d="M165.32,56.88c-.11.67-.64.85-1,1.14q-6.66,5-13.32,10c-.51.38-1,.75-1.5,1.14-1.55,1.23-1.57,1.92,0,3.14,2.06,1.64,4.21,3.19,6.19,4.91a7.15,7.15,0,0,0,5,1.76c7.78.09,15.56.2,23.34.23a4,4,0,0,0,2.73-1c1.69-1.36,3.44-2.65,5.18-4,1.15-.86,1.66-.85,2.79,0,1.87,1.41,3.74,2.82,5.58,4.26a3,3,0,0,0,2,.66c6.31,0,12.63,0,18.95-.13,2.21,0,4.43-.13,6.64-.13a2.86,2.86,0,0,0,1.83-.71c2.52-2,5.07-4,7.59-6,1.42-1.13,1.39-2-.08-3.08-4.7-3.55-9.42-7.09-14.11-10.65-.62-.46-1.39-.79-1.71-1.57a1.22,1.22,0,0,1,1-.87c7.88-2.48,15.75-5,23.64-7.43,2.27-.7,4.61-1.19,6.9-1.83a1.57,1.57,0,0,1,1.77.43c.33.75-.18,1.25-.47,1.77q-7.87,13.83-15.77,27.64a3.63,3.63,0,0,0-.81,1.86,13.07,13.07,0,0,0,3.47.14c3.72-.06,7.44-.12,11.16-.25,6.18-.2,12.36-.45,18.54-.7,4.85-.19,9.7-.32,14.53-.65,6.67-.46,13.35-.78,20-1.25,5.75-.41,11.51-.81,17.26-1.25,6.49-.5,13-1.16,19.47-1.78,5.49-.52,11-1.06,16.47-1.66,4.9-.55,9.79-1.18,14.68-1.81,4-.51,8-1.07,11.93-1.6a1,1,0,0,1,.85.13c.15.43-.15.69-.4,1-1.56,1.74-3.15,3.45-4.69,5.22a2.77,2.77,0,0,1-2,.84c-3.62.36-7.24.72-10.86,1q-7.62.67-15.24,1.28c-6.21.5-12.41,1-18.63,1.42-6.46.41-12.92.85-19.39,1.18s-13.11.67-19.66,1c-5,.26-9.94.4-14.91.62s-9.85.29-14.78.53c-4.76.23-9.53.13-14.3.33-12.24.51-24.5.3-36.75.52-10.92.19-21.84.19-32.76.09-10.62-.1-21.25-.07-31.87-.32-6.56-.16-13.12-.3-19.68-.49-8.77-.26-17.54-.58-26.31-1q-9.82-.48-19.66-1-13.2-.68-26.4-1.52C48.82,78,40,77.33,31.15,76.72c-8.22-.57-16.42-1.25-24.73-2.09l-6-6.69.19-.46c9.82,1.26,19.63,2.61,29.48,3.7s19.78,2.09,29.7,2.92,19.75,1.51,29.63,2.16,19.87,1,29.8,1.42,19.84.71,30.13,1.07c-1.07-1.9-1.94-3.49-2.84-5.06q-7-12.28-14-24.58A2.44,2.44,0,0,1,132,47.5a1.35,1.35,0,0,1,.95-.76C137.18,47.39,164.37,55.88,165.32,56.88Z" fill="#fff"/>
    <path d="M179,134.93c.62.55,1.27,1.07,1.86,1.65a33.71,33.71,0,0,1,7,11.3,80.2,80.2,0,0,1,4.46,15.36,4.35,4.35,0,0,1,0,2.2H179.25a7.29,7.29,0,0,1-.74-2.92,92,92,0,0,0-3.09-14.3c-1.34-4.36-3.2-8.43-6.52-11.69-.32-.31-.59-.72-1.13-.71-.4.19-.3.56-.3.88,0,4.39-.14,8.78,0,13.17.19,4.64.05,9.28.13,13.91a2,2,0,0,1-.47,1.66H153.58a1.69,1.69,0,0,1-.51-1.54q0-32.61,0-65.23c0-1.62.66-2.28,2.3-2.3a116.81,116.81,0,0,1,18.88,1,33.83,33.83,0,0,1,13,4.29c6.12,3.78,7.73,9.18,6.46,15.85-.93,4.86-4,8.35-7.58,11.47-2,1.7-4.06,3.23-6.12,4.79C179.65,134.06,179.21,134.25,179,134.93Zm-11.43-5.26a1.13,1.13,0,0,0,1.36-.06c1-.57,2.08-1.07,3.06-1.69,3.2-2,6.22-4.29,8.09-7.67,2.31-4.17,3-8.47.15-12.66-2.19-3.25-5.53-4.87-9.24-5.77-1.06-.25-2.13-.83-3.42-.29Z" fill="#fff"/>
    <path d="M0,194.29c.24-.93,1-1.41,1.51-2,1.12-1.34,2.37-2.58,3.52-3.91a3.32,3.32,0,0,1,2.41-1.13c6.17-.55,12.33-1.13,18.49-1.65,7.91-.66,15.82-1.35,23.74-1.89,9.21-.63,18.43-1.24,27.65-1.69L98,181c5.35-.27,10.69-.4,16-.62s10.94-.29,16.41-.53,11-.14,16.56-.33c10.49-.38,21-.39,31.48-.4,8.25,0,16.49-.09,24.73-.07,8.49,0,17,0,25.48.18,8.15.19,16.3.27,24.45.51,5.56.16,11.12.3,16.67.48,8.36.27,16.71.63,25.06,1,6.51.29,13,.61,19.53,1,9.09.57,18.17,1.23,27.26,1.85q12.32.84,24.61,2c4,.38,8.08.73,12.12,1.09a1.94,1.94,0,0,1,1.36.53l5.38,6a.44.44,0,0,1,.08.5c-.3.43-.72.16-1.11.11-5.26-.69-10.52-1.41-15.79-2.06s-10.55-1.23-15.83-1.79q-9.23-1-18.46-1.81-10.92-1-21.86-1.87c-4.41-.35-8.84-.6-13.26-.85-5.26-.31-10.51-.62-15.77-.88q-11.21-.57-22.42-1c-4.88-.19-9.77-.27-14.66-.48-7.73-.34-15.47-.28-23.19-.51-16.57-.49-33.13-.34-49.69-.25-9.07,0-18.15.24-27.22.48q-8.26.22-16.54.49-11.52.39-23,1c-7.43.39-14.84.92-22.27,1.36-9.59.56-19.18,1.33-28.75,2.18Q41.8,189.46,28.28,191c-7.44.86-14.85,1.82-22.28,2.73-1.57.19-3.14.46-4.71.71A1.39,1.39,0,0,1,0,194.29Z" fill="#fff"/>
    <path d="M20.75,91.48c.47-.85,1.23-.72,1.93-.72H59.46A2.21,2.21,0,0,1,60.8,91c.14,1.07-2.17,4.8-3.15,5A5.83,5.83,0,0,1,56.4,96H39.58c-2,0-2.27.27-2.27,2.23v29.61c0,2,.15,2.12,2.18,2.12,3.6,0,7.19,0,10.79,0,1.57,0,1.83.27,1.85,1.83,0,.62,0,1.25,0,1.88,0,1.43-.23,1.64-1.71,1.65-3.69,0-7.37,0-11.05,0a2,2,0,0,0-2.06.94V161.6c0,1.81.21,2,2,2h20c.61,0,1.29-.13,1.76.71a16.24,16.24,0,0,1-2.94,4.31,1.92,1.92,0,0,1-1.43.34H22.54a2,2,0,0,1-1.79-.69Z" fill="#fff"/>
    <path d="M361.3,92.49a10.64,10.64,0,0,1-2.48,3.75,3,3,0,0,1-2.15.41c-4.73-.1-9.48-.18-13.82,2.14-3.74,2-5.78,5.12-5.63,9.44a10.25,10.25,0,0,0,3.14,6.78,68.52,68.52,0,0,0,8.81,7.42,82.17,82.17,0,0,1,11.14,9.51,24.63,24.63,0,0,1,6.1,9.93,15.41,15.41,0,0,1-3.75,15.64c-3.62,3.91-8.2,6.24-13.12,8a71.8,71.8,0,0,1-13,3.37,58.83,58.83,0,0,1-12.51.6c-1-.05-2,.2-3.07-.68.88-1.17,1.47-2.53,2.66-3.49a1.33,1.33,0,0,1,.95-.22A67.5,67.5,0,0,0,338.08,164a18.22,18.22,0,0,0,9.64-4.47,10,10,0,0,0,1.66-13c-1.76-2.86-4.31-5-6.81-7.12-4.72-4.07-10-7.48-14.62-11.62-4-3.59-6.65-8-6.77-13.49a17,17,0,0,1,3.79-11c3.39-4.37,7.93-7.09,13-9a47.87,47.87,0,0,1,17.22-2.76c1.46,0,2.92.21,4.38.32A3.25,3.25,0,0,1,361.3,92.49Z" fill="#fff"/>
    <path d="M197.53,97.07a1.64,1.64,0,0,1,1.59-.71q5.34,0,10.67,0a2.19,2.19,0,0,1,1.72.66c3.48,14.15,6.74,28.49,10.45,42.72,0,.06.21.07.44.13.39-1.41.79-2.8,1.17-4.19,1.09-3.94,2.19-7.88,3.23-11.83,1-3.75,1.92-7.51,2.85-11.28,1.13-4.57,2.19-9.17,3.35-13.73.63-2.5.71-2.48,3.35-2.48,1.13,0,2.26,0,3.38,0a1.46,1.46,0,0,1,1.47.82c-5.39,22.37-10.82,44.87-16.25,67.36a1.65,1.65,0,0,1-.85,1h-10c-.71,0-1-.51-1.13-1.14-.79-3.41-1.61-6.82-2.41-10.23q-1.4-6-2.78-11.95c-1.08-4.67-2.18-9.34-3.26-14q-1.38-5.91-2.75-11.83L198,99.79A6,6,0,0,1,197.53,97.07Z" fill="#fff"/>
    <path d="M99.93,96.4c2.3,0,4.62-.11,6.9,0,.3,1.29-15.18,68.08-16.07,68.94a2.37,2.37,0,0,1-1.21.16c-2.6,0-5.19,0-7.78,0-1.08,0-1.72-.29-2-1.44-.54-2.7-1.2-5.38-1.79-8.07-.93-4.19-1.84-8.39-2.77-12.59Q73.6,136,71.93,128.55c-1.08-4.84-2.18-9.68-3.26-14.53q-1.4-6.17-2.75-12.34c-.34-1.54-.68-3.08-1-4.48a1.55,1.55,0,0,1,1.6-.84c3.43,0,6.86,0,10.29,0,1.08,0,1.51.45,1.75,1.5,1,4.64,2.19,9.26,3.29,13.88q1.84,7.8,3.66,15.61,1.33,5.66,2.66,11.33a1.32,1.32,0,0,0,.5.85c.67-.06.73-.6.85-1.07,1.63-6.47,3.31-12.93,4.89-19.42,1.13-4.66,2.13-9.36,3.2-14,.55-2.4,1.09-4.8,1.66-7.19A2.86,2.86,0,0,1,99.93,96.4Z" fill="#fff"/>
    <path d="M113.86,96.5h33.31a24.15,24.15,0,0,1,.06,4.48,2.19,2.19,0,0,1-1.77.4c-5.19,0-10.38,0-15.56,0-1.76,0-2,.19-1.93,2,.31,6.85.1,13.71.15,20.56,0,1.63-.11,3.25-.16,4.88a1.72,1.72,0,0,0,.61,1.58h14.24a11.12,11.12,0,0,1-.09,5H128.2v25.16h18.89a20.12,20.12,0,0,1,.16,4.59,1.75,1.75,0,0,1-1.55.43q-15.19,0-30.37,0c-1.55,0-1.76-.2-1.76-1.72q0-32.92,0-65.86A2.25,2.25,0,0,1,113.86,96.5Z" fill="#fff"/>
    <path d="M247.38,97.53A2,2,0,0,1,249,97h30.62a1.39,1.39,0,0,1,1.28.41,20.12,20.12,0,0,1-2.82,4.29c-.38.44-1.09.31-1.68.31H262.85a2.28,2.28,0,0,0-2,.58V130a2.06,2.06,0,0,0,1.91.68h9.91a2.3,2.3,0,0,1,2,.63c.06,1.28.37,2.66-.22,3.92a2.78,2.78,0,0,1-1.71.3c-3.31,0-6.61,0-9.92,0a2.14,2.14,0,0,0-1.92.72v24.26h17.8a1.46,1.46,0,0,1-.29,1.72c-2.49,3.88-1.65,3.32-6,3.33q-11.61,0-23.21,0c-1.78,0-2-.17-2-1.94V98.88A2.83,2.83,0,0,1,247.38,97.53Z" fill="#fff"/>
    <path d="M285.93,165c.43-2.32,1.76-3.85,3.43-3.76a41.85,41.85,0,0,0,9.86-.75,16.54,16.54,0,0,0,8-3.57c3.73-3.21,4.35-8.44,1.47-12.82-1.72-2.62-4.12-4.6-6.41-6.67-3.75-3.4-8-6.25-11.53-9.85a16.33,16.33,0,0,1-5.11-11.36,15.94,15.94,0,0,1,4.78-11.75,27.19,27.19,0,0,1,12.44-7.16,39.06,39.06,0,0,1,13.39-1.53,5.34,5.34,0,0,1,3.06.74c-.46,2.53-2,3.86-4.4,3.86a32.72,32.72,0,0,0-8.82.88,9.16,9.16,0,0,0-5.2,14.52c1.86,2.62,4.42,4.54,6.86,6.56,2.62,2.15,5.33,4.19,7.75,6.56,3.29,3.23,6.33,6.66,7.69,11.25,1.84,6.19.31,11.45-4.29,15.86a29.52,29.52,0,0,1-10.32,6,55,55,0,0,1-16.87,3.42A32.06,32.06,0,0,1,285.93,165Z" fill="#fff"/>
    <path d="M217,54.8a11,11,0,0,1-2.65,2.25Q204.56,64.54,194.71,72c-1.25.94-1.59,1-2.77.08L170.4,55.69c-1.05-.81-1-1.54.12-2.4L188,40c1.33-1,2.66-2,4-3a1.89,1.89,0,0,1,2.61,0L216.2,53.45A1.57,1.57,0,0,1,217,54.8Zm-34.43-1a1.57,1.57,0,0,0,.71,2.11c2.74,2.05,5.45,4.14,8.19,6.21,1.51,1.14,2.14,1.13,3.67,0,2.77-2.09,5.52-4.2,8.28-6.3a1.82,1.82,0,0,0,.84-1.1,1.41,1.41,0,0,0-.61-1.12q-4.65-3.51-9.28-7a1.66,1.66,0,0,0-2.19,0C189,48.91,185.73,51.36,182.57,53.76Z" fill="#fff"/>
    <path d="M375.08,178.18A10.11,10.11,0,0,1,364.72,168a10.38,10.38,0,0,1,20.75,0C385.5,173.52,380.6,178.54,375.08,178.18Zm5.38-4c3.47-2.44,4-7.94,1.25-11.42s-8-4.19-10.79-1.88c.25.5.72.33,1.1.34,1.17,0,2.34,0,3.51,0,2.21.09,3.73,1.11,4.24,2.86.61,2,.26,4.3-1.8,5.47a.89.89,0,0,0-.46.69A27.54,27.54,0,0,0,380.46,174.23Zm-10.29-12.77c-2.32,1.08-3.75,4.24-3.47,7.5.2,2.39,1.86,5,3.47,5.45Zm7,13.06c-1.38-1.28-2.05-3.18-3.76-4.41-.76,1.5,0,3-.56,4.31-.66.49-1.47,0-2.08.46,1.91,2,7.46,1.89,8.5-.14C378.57,174.55,377.84,174.81,377.16,174.52Zm-3.87-7.08a17.5,17.5,0,0,0,2.52,0,1.6,1.6,0,0,0,1.47-1.6,1.51,1.51,0,0,0-1.2-1.67,5.46,5.46,0,0,0-2.94.1A6.63,6.63,0,0,0,373.29,167.44Z" fill="#fff"/>
  </g>
</svg>
