<svg xmlns="http://www.w3.org/2000/svg" width="386" height="231" viewBox="0 0 386 231">
  <title>New Brand Logos</title>
  <g>
    <path d="M151.51,99.9a9.26,9.26,0,0,0-3.29.59l3.88,11.93s6.53-.73,4.67-8.12C155.88,100.78,153.52,99.92,151.51,99.9Z" fill="#fff"/>
    <polygon points="292.16 86.68 284.06 71.2 285.91 88.73 292.16 86.68" fill="#fff"/>
    <path d="M256,87.9c0-8.86-6.85-9.61-10-9.64a12.75,12.75,0,0,0-1.43.07l6.73,20.49S256,94.17,256,87.9Z" fill="#fff"/>
    <path d="M294.49,111.38l-.76-7.47.16-.06L298.3,111,325,102.68,289.43,44.23l-4.65,1.49L264,52.42l.91,11.31a25.77,25.77,0,0,0-17.65-7c.48,0,1,0,1.41,0L219.76,6.13,177.39,68.52l-68-31.86,1,45.82-1.77,1.36a18.94,18.94,0,0,0-4.39,4.34,14,14,0,0,0-2.31,7.75c0,.3.13.61.15.91l-1.54-6-6.8,9.4-9.27,12.9L61.36,101,61,169.91,88.8,168l.11-12.35,6.38,4,4.32-6.7,5.71,11.23,6.68-2.84,1.35,63.49,1.44-.16,58.53-6.7-2.57-62.27,37.51,24.67,20.54-39.95,29.69,54.32,54.64-24.9-31.5-55.25Zm-7.81-59.77,28.89,47.53-14.52,4.55-4.5-7.33-9.46,3.33.71,7-13,3.29L270.53,56.8Zm-18.2,36.62c0,22.94-24.05,29.33-24.05,29.33l-15.9-49.87,10.25-3.33a27.71,27.71,0,0,1,8.46-1.44C260.58,62.9,268.48,74.56,268.48,88.23Zm-50.07,39.53L205,132.37l-16.46-52.5,25.24,10.88-4.82-16.54,13.92-4.78,16.58,49.65-9,3.2-17.92-11.67Zm-57.66,12-14.13,4.56L130.85,95.5l19.63-6.21a24.47,24.47,0,0,1,7-1.06c6.59,0,11.19,3.62,12.94,10.16,2.62,9.77-3.37,17.34-3.37,17.34l18.17,17.14-10.78,7.06-21-19.75Zm-22.4-1.61-14.46,4.44-11.68-35,14.37-4.45Zm46.41-9.3-14.59-44,14-4L197.82,125Zm60.85-72c.54,0,1.08,0,1.62,0h0a33.74,33.74,0,0,0-10.36,1.74l-10.08,3.27-.07-.2-5.9,2-19.5,6.7,2.8,9.59L179.94,69.45l39.63-58.33Zm-67.3,15.07.81-1.2,1.5,4.77-18.35,5.22.78,2.36a18.94,18.94,0,0,0-5.58-1,29.67,29.67,0,0,0-8.86,1.34l-16.54,5.23a18.78,18.78,0,0,0-3.65-8.92,33.46,33.46,0,0,0-3.54-4.13l-5.72-5.47L115.23,77a17.31,17.31,0,0,1-2.3,3.2l-.84-39.31ZM112.9,80.2c-.36.39-.74.74-1.12,1.08C112.16,80.94,112.54,80.59,112.9,80.2Zm-1.35,1.29c-.39.34-.79.66-1.21,1C110.76,82.15,111.16,81.83,111.55,81.49Zm9-1.45s5.63,5.37,5.63,10.15c0,6.64-6.54,11.91-12,11.81-4.42-.09-6.24-3.25-6.24-6.07C108,88.68,115.3,89.31,120.6,80ZM100,140.09s-6.46,11.24-6.61,11.15-10.56-7.14-10.56-7.14l-.15,18.16-15.42,1,.24-52.06,18.79,9.88,12.41-17.27,24.14,46.22-14.61,6.21Zm209.42,28.59-49.78,22.68-30.9-56.54-21.47,41.77L167.9,150.71l2.68,65-54.65,6.24-1.31-61.64,16.79-7.14-2.88-5.52,11.52-3.53,2.59,8,26.16-8.44-.3-.8,5.23,4.93,21.43-14-1.23-1.16,4.22-1.24,2.8,8.93,25.33-8.68-2.06-6,5.36,3.49,13.7-4.86,2.74-.73a46,46,0,0,0,14.12-7.08,38.19,38.19,0,0,0,8.29-8.79l.81,10.1,11.93-3-2.19.56Z" fill="#fff"/>
  </g>
</svg>
