<svg xmlns="http://www.w3.org/2000/svg" width="386" height="231" viewBox="0 0 386 231">
  <title>New Brand Logos</title>
  <g>
    <path d="M193,7A108.55,108.55,0,1,0,301.55,115.5,108.58,108.58,0,0,0,193,7Zm0,213c-.93,0-1.86,0-2.79,0a104.45,104.45,0,0,1,2.67-208.87H193A104.46,104.46,0,1,1,193,220Z" fill="#f8ffff"/>
    <path d="M244.33,94.34c-11.39,0-18,5.31-18,12.58,0,15.54,24.88,11.43,24.88,17,0,2.08-3,2.83-5.54,2.83-4.65,0-9.1-1.26-11-4.6l-11,4.16s2.05,10.09,21.69,10.09c12.47,0,19.2-5.3,19.2-13,0-14.92-24.76-11.09-24.76-16.47,0-1.8,3.07-2.74,5-2.74,7.22,0,7.78,4.31,7.78,4.31l11.2-4.33c-1.09-3.3-3.72-9.81-19.39-9.81Zm38.17.29-13.89,5v35.47H282.5Zm-157.23.69H102.81v39.77h13.88v-7.47l11.58-4.45c10.44-4,12.79-8,12.85-14.94.09-12.25-12.32-12.91-15.85-12.91Zm82.83,0H185.63v39.77h13.88v-7.47l11.58-4.45c10.44-4,12.8-8,12.85-14.94C224,96,211.62,95.32,208.1,95.32Zm-63.08,0v39.77H180.1v-10H158.9V120h16.43v-9.59H158.9v-5.15h21v-10Zm-28.33,10h5.47c2.77,0,5.07,1.06,5.07,4.12a5.63,5.63,0,0,1-3.6,5l-6.94,2.8Zm82.82,0H205c2.77,0,5.07,1.06,5.07,4.12a5.63,5.63,0,0,1-3.6,5l-6.94,2.8Z" fill="#fff"/>
    <path d="M241.7,147.42c-28.5,0-66.84,12.17-98.64,12.17-27.36,0-38.85-5.21-39.21-5.38a97.16,97.16,0,0,0,178.12.15c-.29-.1-19.26-6.94-40.27-6.94Z" fill="#fff"/>
    <path d="M144.18,83.58c29.37,0,66.85-12.17,98.64-12.17,26.08,0,38.95,5.43,39.31,5.59a97.26,97.26,0,0,0-178.41-.18,135.41,135.41,0,0,0,40.46,6.76Z" fill="#fff"/>
  </g>
</svg>
