<?xml version="1.0" encoding="UTF-8"?>
<svg version="1.1" xmlns="http://www.w3.org/2000/svg" width="500" height="500">
<path d="M0 0 C0.71542969 0.60714844 1.43085938 1.21429688 2.16796875 1.83984375 C0.18223492 9.83111535 -2.44904443 17.39275211 -5.51953125 25.02734375 C-5.93525391 26.07470703 -6.35097656 27.12207031 -6.77929688 28.20117188 C-7.79165825 30.74952982 -8.80928289 33.29564094 -9.83203125 35.83984375 C-11.62409672 35.69899579 -13.41568042 35.55200674 -15.20703125 35.40234375 C-16.20476562 35.32113281 -17.2025 35.23992187 -18.23046875 35.15625 C-20.83203125 34.83984375 -20.83203125 34.83984375 -22.83203125 33.83984375 C-23.2890625 31.87890625 -23.2890625 31.87890625 -23.64453125 29.46484375 C-24.401248 25.75280326 -24.401248 25.75280326 -26.83203125 22.90234375 C-36.81866128 19.36541228 -47.21933756 18.70376786 -57.39453125 22.15234375 C-61.75258064 24.27274733 -61.75258064 24.27274733 -64.83203125 27.83984375 C-65.89397697 32.22921938 -66.10825496 34.7349489 -65.01953125 39.08984375 C-59.1826353 46.4276558 -46.49826019 47.64867871 -37.83203125 49.83984375 C-7.97708515 57.38835358 -7.97708515 57.38835358 1.16796875 67.83984375 C1.84859375 68.56171875 2.52921875 69.28359375 3.23046875 70.02734375 C5.96981948 74.00382061 7.51868147 78.32184935 9.16796875 82.83984375 C9.49796875 82.83984375 9.82796875 82.83984375 10.16796875 82.83984375 C10.16352753 81.72928619 10.1590863 80.61872864 10.1545105 79.47451782 C10.11402953 69.02669044 10.08401573 58.57887889 10.06434441 48.13099098 C10.05389135 42.75916917 10.03970446 37.38741048 10.01708984 32.015625 C9.99541564 26.83500927 9.9834116 21.6544544 9.97821426 16.47379684 C9.97450873 14.49376848 9.96727313 12.51374357 9.95650864 10.533741 C9.94206573 7.76802529 9.93998777 5.00256354 9.94091797 2.23681641 C9.93372742 1.41179123 9.92653687 0.58676605 9.91912842 -0.26325989 C9.93986443 -5.93205193 9.93986443 -5.93205193 12.16796875 -8.16015625 C15.21057129 -8.41412354 15.21057129 -8.41412354 19.17773438 -8.41894531 C19.90013809 -8.42244995 20.62254181 -8.42595459 21.36683655 -8.42956543 C23.76939367 -8.43840497 26.17165829 -8.43251613 28.57421875 -8.42578125 C30.25459855 -8.42712961 31.93497797 -8.42907156 33.61535645 -8.43157959 C37.15295086 -8.43453574 40.69044461 -8.43022613 44.22802734 -8.42089844 C48.71029184 -8.40964328 53.19231311 -8.41597014 57.67456818 -8.42804337 C61.15641005 -8.43536939 64.6381971 -8.43292324 68.12004089 -8.42778778 C69.76865163 -8.42647335 71.41726771 -8.42801949 73.06587219 -8.43274689 C81.74663867 -8.45213418 90.30809461 -8.19148644 98.94335938 -7.25292969 C99.67912956 -7.17339176 100.41489975 -7.09385384 101.172966 -7.01190567 C112.24998581 -5.68587662 121.67347923 -1.59145697 129.16796875 6.83984375 C129.16796875 7.49984375 129.16796875 8.15984375 129.16796875 8.83984375 C129.82796875 8.83984375 130.48796875 8.83984375 131.16796875 8.83984375 C136.51120014 20.02335132 137.87372881 30.81963727 134.16796875 42.83984375 C132.19139892 47.08848388 129.76330351 50.94684161 127.16796875 54.83984375 C126.50796875 54.83984375 125.84796875 54.83984375 125.16796875 54.83984375 C125.16796875 55.49984375 125.16796875 56.15984375 125.16796875 56.83984375 C123.41796875 58.12890625 123.41796875 58.12890625 121.16796875 59.46484375 C120.05421875 60.13386719 120.05421875 60.13386719 118.91796875 60.81640625 C118.34046875 61.15414062 117.76296875 61.491875 117.16796875 61.83984375 C117.9878125 62.23816406 118.80765625 62.63648438 119.65234375 63.046875 C120.73 63.57667969 121.80765625 64.10648437 122.91796875 64.65234375 C123.9853125 65.17441406 125.05265625 65.69648438 126.15234375 66.234375 C128.7346222 67.60913723 130.98136568 68.90268326 133.16796875 70.83984375 C133.16796875 71.49984375 133.16796875 72.15984375 133.16796875 72.83984375 C133.82796875 72.83984375 134.48796875 72.83984375 135.16796875 72.83984375 C142.60610031 85.27592933 144.97367957 96.40367525 142.69921875 110.80859375 C140.48368032 119.14323834 135.82317996 127.29383441 129.16796875 132.83984375 C128.50796875 132.83984375 127.84796875 132.83984375 127.16796875 132.83984375 C127.16796875 133.49984375 127.16796875 134.15984375 127.16796875 134.83984375 C121.90055832 139.15760086 115.64269549 141.60076739 109.23046875 143.65234375 C108.59947266 143.85899658 107.96847656 144.06564941 107.31835938 144.27856445 C95.88354361 147.7237806 83.62602602 146.97472935 71.8125 146.9375 C70.05702251 146.93563125 68.30154449 146.93420951 66.54606628 146.93321228 C61.96111572 146.92942307 57.37619764 146.91962415 52.79125977 146.9085083 C48.09847452 146.89821621 43.40568394 146.89369807 38.71289062 146.88867188 C29.53123586 146.8779981 20.34960502 146.86096571 11.16796875 146.83984375 C10.04639569 142.81047196 10.04152159 138.94841016 10.0703125 134.79296875 C10.07172745 134.02176697 10.0731424 133.25056519 10.07460022 132.45599365 C10.08018341 130.00057037 10.0927328 127.54523933 10.10546875 125.08984375 C10.11048592 123.42187632 10.11504845 121.75390746 10.11914062 120.0859375 C10.13014734 116.00387088 10.14740039 111.92187294 10.16796875 107.83984375 C9.92272461 108.63865967 9.67748047 109.43747559 9.42480469 110.26049805 C5.0341817 124.07083151 -2.605674 134.20556896 -15.51953125 141.02734375 C-37.62170108 151.4644795 -64.88620373 152.08141432 -87.8918457 143.83789062 C-94.75321298 141.19246099 -100.46247065 137.8544867 -105.83203125 132.83984375 C-106.59128906 132.21335937 -107.35054687 131.586875 -108.1328125 130.94140625 C-109.83203125 128.83984375 -109.83203125 128.83984375 -109.87890625 126.61328125 C-108.37413669 122.62676489 -106.28324773 119.10384902 -104.08203125 115.46484375 C-103.65148437 114.73523438 -103.2209375 114.005625 -102.77734375 113.25390625 C-100.00741785 108.60971912 -97.03013112 104.19984322 -93.83203125 99.83984375 C-90.51953125 100.02734375 -90.51953125 100.02734375 -86.83203125 100.83984375 C-84.5970254 103.55377943 -83.75755645 106.06326816 -82.64453125 109.40234375 C-80.26224487 113.92047308 -77.5225081 115.16531651 -72.83203125 116.83984375 C-62.4925922 119.70185624 -49.08729611 120.00524834 -38.83203125 116.83984375 C-37.15411645 115.85883423 -35.48542687 114.86163663 -33.83203125 113.83984375 C-33.17203125 113.83984375 -32.51203125 113.83984375 -31.83203125 113.83984375 C-29.29904089 109.09048683 -29.00209946 104.08743332 -29.83203125 98.83984375 C-34.45166362 92.26036734 -42.21649976 90.54482677 -49.70703125 88.90234375 C-50.44171631 88.73250977 -51.17640137 88.56267578 -51.93334961 88.38769531 C-55.66445939 87.52810609 -59.40027657 86.71986973 -63.15625 85.9765625 C-75.85986038 83.37690314 -91.00091175 78.95782749 -98.83203125 67.83984375 C-106.20405608 56.6523213 -108.48528153 45.01766579 -106.33203125 31.76171875 C-104.37660181 23.09561102 -101.10981546 14.33410328 -94.83203125 7.83984375 C-94.17203125 7.83984375 -93.51203125 7.83984375 -92.83203125 7.83984375 C-92.50203125 6.84984375 -92.17203125 5.85984375 -91.83203125 4.83984375 C-69.46200565 -13.17571122 -23.90111338 -18.23078028 0 0 Z M53.16796875 21.83984375 C53.16796875 31.73984375 53.16796875 41.63984375 53.16796875 51.83984375 C57.82921875 51.90171875 62.49046875 51.96359375 67.29296875 52.02734375 C68.75234863 52.05465576 70.21172852 52.08196777 71.71533203 52.11010742 C73.45919189 52.12134644 73.45919189 52.12134644 75.23828125 52.1328125 C76.42180176 52.14852295 77.60532227 52.1642334 78.82470703 52.18041992 C83.83930459 51.66958572 87.07196353 50.02471426 90.48046875 46.33984375 C93.59792834 41.7213851 93.80697324 37.24822954 93.16796875 31.83984375 C91.05154762 27.16608042 88.3799951 24.8734283 83.77148438 22.65356445 C78.24232286 20.92544224 72.39851 21.43959986 66.66796875 21.58984375 C62.21296875 21.67234375 57.75796875 21.75484375 53.16796875 21.83984375 Z M53.16796875 80.83984375 C53.14331777 85.80606724 53.12513226 90.77225541 53.11303711 95.73852539 C53.10799685 97.42928691 53.1011647 99.12004404 53.0925293 100.81079102 C53.08045018 103.23585082 53.07473752 105.66085319 53.0703125 108.0859375 C53.06515121 108.84635849 53.05998993 109.60677948 53.05467224 110.39024353 C53.05447637 112.20716945 53.10599598 114.02397502 53.16796875 115.83984375 C55.51148792 118.18336292 61.41422746 117.01164093 64.52929688 117.02539062 C65.21967041 117.02531006 65.91004395 117.02522949 66.62133789 117.02514648 C68.69764428 117.02730955 70.77339879 117.04539169 72.84960938 117.06445312 C84.86310114 117.33976142 84.86310114 117.33976142 95.54296875 112.52734375 C99.93283347 108.03295844 100.4758699 104.08214795 100.54296875 97.90234375 C100.45064355 92.38014253 100.22782398 88.89969898 96.16796875 84.83984375 C91.15258883 80.7519849 87.68158436 80.28494865 81.48828125 80.44921875 C80.67551727 80.45487854 79.8627533 80.46053833 79.02536011 80.46636963 C76.4472793 80.48863537 73.87062444 80.5388106 71.29296875 80.58984375 C69.53778059 80.60992155 67.78257049 80.62817008 66.02734375 80.64453125 C61.74034186 80.68846763 57.45439648 80.75742464 53.16796875 80.83984375 Z " fill="#0579BF" transform="translate(161.83203125,136.16015625)"/>
<path d="M0 0 C0.70302246 0.2050415 1.40604492 0.41008301 2.13037109 0.62133789 C4.93632072 1.73421342 6.19286767 2.54785371 8 5 C8.93962508 10.3922134 8.89817363 15.61780083 8.71337891 21.07543945 C8.62492385 23.68975049 8.59047265 26.30039114 8.56640625 28.91601562 C8.53956771 30.57296995 8.50972433 32.22987892 8.4765625 33.88671875 C8.46178864 34.67004074 8.44701477 35.45336273 8.43179321 36.26042175 C8.23681351 41.76318649 8.23681351 41.76318649 6 44 C3.00680144 43.81475318 1.43008073 43.37201076 -0.8515625 41.3984375 C-1.43679688 40.73070312 -2.02203125 40.06296875 -2.625 39.375 C-10.58017924 31.03103381 -21.7347189 24.10604752 -33.47265625 23.46875 C-35.33593734 23.45830414 -37.19945018 23.46884098 -39.0625 23.5 C-40.4556543 23.47679687 -40.4556543 23.47679687 -41.87695312 23.453125 C-51.71032842 23.50832991 -59.85909523 27.26757919 -67 34 C-79.14062075 47.88726666 -79.76720935 66.54598722 -79 84 C-77.96968129 94.18610547 -75.04398847 101.83244801 -69 110 C-69 110.66 -69 111.32 -69 112 C-68.43152344 112.268125 -67.86304688 112.53625 -67.27734375 112.8125 C-65 114 -65 114 -62.87890625 115.4375 C-52.64877792 122.33809246 -41.82535081 122.8541982 -29.89453125 120.9140625 C-24.92317782 119.90331491 -20.64723394 117.74188527 -16.2578125 115.2421875 C-14 114 -14 114 -12 114 C-12 113.34 -12 112.68 -12 112 C-7.52941176 108 -7.52941176 108 -5 108 C-5 107.34 -5 106.68 -5 106 C-2.953125 104.01953125 -2.953125 104.01953125 -0.25 101.8125 C0.63171875 101.07644531 1.5134375 100.34039062 2.421875 99.58203125 C5 98 5 98 7.16113281 98.40112305 C7.76795898 98.59875244 8.37478516 98.79638184 9 99 C9.19809361 104.46243138 9.34307407 109.92276519 9.43945312 115.38793945 C9.47963212 117.2457318 9.53418925 119.10327196 9.60351562 120.96020508 C9.70083198 123.6342581 9.7459756 126.30496552 9.78125 128.98046875 C9.82254028 129.80773972 9.86383057 130.63501068 9.90637207 131.48735046 C9.90824372 133.90472612 9.81878852 135.72216447 9 138 C6.59148798 140.26262235 3.99571507 141.6456344 1 143 C-0.03640625 143.47566406 -1.0728125 143.95132813 -2.140625 144.44140625 C-28.11923464 153.80806576 -58.69111927 157.02751853 -84.4230957 145.26416016 C-101.13011586 137.10605957 -111.80022753 125.1588486 -119 108 C-127.99242206 81.75847743 -125.73624145 54.00615572 -113.6640625 29.26171875 C-103.47619206 10.79988417 -86.12577001 -0.00871843 -66.25 -5.75 C-45.26472202 -11.42526386 -19.54691455 -9.42440523 0 0 Z " fill="#0379BE" transform="translate(432,134)"/>
<path d="M0 0 C1.53091108 -0.00391162 1.53091108 -0.00391162 3.09274966 -0.00790226 C4.22822235 -0.00567154 5.36369505 -0.00344082 6.53357601 -0.0011425 C7.73007477 -0.00270249 8.92657353 -0.00426248 10.15932983 -0.00586975 C13.49888082 -0.00918449 16.83837611 -0.00796889 20.1779238 -0.00488353 C23.77812531 -0.00263017 27.37832178 -0.00611016 30.9785223 -0.00886345 C38.06319403 -0.01333258 45.14785522 -0.01233626 52.23252738 -0.00945081 C58.03933875 -0.00718579 63.84614718 -0.00688907 69.65295887 -0.00797462 C70.48222702 -0.00812786 71.31149518 -0.00828109 72.16589267 -0.00843897 C73.85206279 -0.00875878 75.5382329 -0.009083 77.22440302 -0.00941156 C93.10475184 -0.01227355 108.98509493 -0.00897609 124.8654428 -0.00361119 C138.28932367 0.00078607 151.7131957 0.0000984 165.13707638 -0.00452995 C319.09531087 -0.05624345 319.09531087 -0.05624345 391.31261349 1.12584114 C391.31261349 2.77584114 391.31261349 4.42584114 391.31261349 6.12584114 C260.30261349 6.12584114 129.29261349 6.12584114 -5.68738651 6.12584114 C-5.68738651 -0.25598744 -5.67864654 0.00103875 0 0 Z " fill="#3C96C0" transform="translate(50.68738651275635,299.87415885925293)"/>
<path d="M0 0 C2.31 0 4.62 0 7 0 C7.66 1.98 8.32 3.96 9 6 C9.66 6 10.32 6 11 6 C11.309375 5.195625 11.61875 4.39125 11.9375 3.5625 C13 1 13 1 14 0 C16.67058851 -0.14115161 19.32432238 -0.04247107 22 0 C21.38801624 3.43950364 20.07941153 5.51564485 17.9375 8.25 C17.38964844 8.95640625 16.84179688 9.6628125 16.27734375 10.390625 C15.85582031 10.92171875 15.43429687 11.4528125 15 12 C16.84899221 16.20225502 19.18404814 19.05766739 22 23 C22.33 15.41 22.66 7.82 23 0 C29.27 0 35.54 0 42 0 C42 1.98 42 3.96 42 6 C38.37 6 34.74 6 31 6 C31 6.99 31 7.98 31 9 C34.3 9 37.6 9 41 9 C41.04254356 10.99954746 41.04080783 13.00041636 41 15 C40 16 40 16 37.93359375 16.09765625 C37.10988281 16.08605469 36.28617187 16.07445312 35.4375 16.0625 C34.61121094 16.05347656 33.78492188 16.04445313 32.93359375 16.03515625 C31.97646484 16.01775391 31.97646484 16.01775391 31 16 C31 17.65 31 19.3 31 21 C34.63 21 38.26 21 42 21 C42 22.65 42 24.3 42 26 C39.25875557 28.74124443 31.42971858 27.43206673 27.75 27.5 C26.50863281 27.55414063 25.26726562 27.60828125 23.98828125 27.6640625 C14.99074905 27.79965502 14.99074905 27.79965502 12.02539062 25.40625 C10.640625 23.46875 10.640625 23.46875 9 20 C8.34 22.31 7.68 24.62 7 27 C4.69 27 2.38 27 0 27 C0 18.09 0 9.18 0 0 Z " fill="#AE126C" transform="translate(259,313)"/>
<path d="M0 0 C9 0 9 0 11.19140625 2.1875 C11.64386719 3.115625 12.09632813 4.04375 12.5625 5 C13.03816406 5.928125 13.51382812 6.85625 14.00390625 7.8125 C14.49697266 8.8953125 14.49697266 8.8953125 15 10 C15.33 6.7 15.66 3.4 16 0 C29.5470852 -1.0735426 29.5470852 -1.0735426 33.109375 1.55859375 C34.4375 3.5 34.4375 3.5 36 7 C37.32 4.69 38.64 2.38 40 0 C42.64 0 45.28 0 48 0 C46.87106919 4.177044 45.12283353 7.55537137 42.9375 11.25 C39.9686524 16.51591216 39.02605182 20.99505574 39 27 C36.66705225 27.04241723 34.33297433 27.04092937 32 27 C30.37115919 25.37115919 30.87934771 23.37235643 30.8125 21.125 C30.30406686 14.4364744 27.53453574 9.58824153 24 4 C23.97494385 4.6612085 23.9498877 5.32241699 23.92407227 6.00366211 C23.80846898 8.98182305 23.68558246 11.9596392 23.5625 14.9375 C23.52318359 15.97841797 23.48386719 17.01933594 23.44335938 18.09179688 C23.40146484 19.08115234 23.35957031 20.07050781 23.31640625 21.08984375 C23.27974854 22.00628662 23.24309082 22.92272949 23.20532227 23.86694336 C23 26 23 26 22 27 C18.8125 27.6875 18.8125 27.6875 15 27 C12.49004164 23.92237922 10.73842587 20.55852275 9 17 C8.67 16.34 8.34 15.68 8 15 C7.67 18.96 7.34 22.92 7 27 C4.69 27 2.38 27 0 27 C0 18.09 0 9.18 0 0 Z " fill="#B21670" transform="translate(303,313)"/>
<path d="M0 0 C0.86835983 0.00960754 1.73671967 0.01921509 2.63139343 0.02911377 C5.51003963 0.0621721 8.38853728 0.10247836 11.26708984 0.14282227 C13.25962801 0.1671167 15.25217171 0.1909606 17.24472046 0.21437073 C22.49566954 0.27727894 27.74652085 0.34632648 32.99737549 0.41662598 C38.35285988 0.48724864 43.70841373 0.55210189 49.06396484 0.61743164 C59.57706201 0.7465308 70.09006496 0.8821118 80.60302734 1.02172852 C80.60302734 2.67172852 80.60302734 4.32172852 80.60302734 6.02172852 C36.71302734 6.02172852 -7.17697266 6.02172852 -52.39697266 6.02172852 C-51.40697266 5.36172852 -50.41697266 4.70172852 -49.39697266 4.02172852 C-49.39697266 3.36172852 -49.39697266 2.70172852 -49.39697266 2.02172852 C-48.22602051 1.99667236 -47.05506836 1.97161621 -45.84863281 1.94580078 C-41.51371888 1.85179148 -37.17896762 1.75155511 -32.84423828 1.64941406 C-30.96634724 1.60604063 -29.08841614 1.56436734 -27.21044922 1.52441406 C-24.51468825 1.46676975 -21.81912938 1.40305871 -19.12353516 1.33813477 C-18.28078033 1.32142227 -17.43802551 1.30470978 -16.56973267 1.28749084 C-10.84668397 1.14127133 -5.80231325 -0.09104793 0 0 Z " fill="#1B78AF" transform="translate(361.39697265625,299.978271484375)"/>
<path d="M0 0 C0.99 0.33 1.98 0.66 3 1 C2.67 1.66 2.34 2.32 2 3 C87.8 3 173.6 3 262 3 C261.67 3.66 261.34 4.32 261 5 C174.87 5 88.74 5 0 5 C0 3.35 0 1.7 0 0 Z " fill="#5690B4" transform="translate(45,301)"/>
<path d="M0 0 C2.37625177 -0.10883596 4.74743976 -0.18766696 7.125 -0.25 C7.79015625 -0.28351563 8.4553125 -0.31703125 9.140625 -0.3515625 C14.2825057 -0.45238369 17.05655823 0.77141691 21 4 C24.18087002 8.41217454 24.19987791 11.68092785 23.51953125 16.8515625 C22.78042235 19.90802787 21.94396201 22.19726065 19.51171875 24.265625 C13.16281334 27.69158681 7.0747905 27.3882507 0 27 C-0.99384397 23.74741974 -1.04826731 20.96534629 -0.87890625 17.578125 C-0.83056641 16.55332031 -0.78222656 15.52851563 -0.73242188 14.47265625 C-0.67634766 13.40917969 -0.62027344 12.34570312 -0.5625 11.25 C-0.51029297 10.17105469 -0.45808594 9.09210938 -0.40429688 7.98046875 C-0.27480531 5.32000578 -0.13984639 2.65993548 0 0 Z M8 6 C8 10.95 8 15.9 8 21 C9.98 20.34 11.96 19.68 14 19 C15.59293052 15.81413895 15.52350846 12.45940051 15 9 C13.32743384 6.88998841 13.32743384 6.88998841 11 6 C10.01 6 9.02 6 8 6 Z " fill="#AC2F75" transform="translate(421,313)"/>
<path d="M0 0 C1.31905326 3.39332391 2.62907401 6.79006569 3.9375 10.1875 C4.49727539 11.62706055 4.49727539 11.62706055 5.06835938 13.09570312 C5.42607422 14.02705078 5.78378906 14.95839844 6.15234375 15.91796875 C6.48226318 16.77156982 6.81218262 17.6251709 7.15209961 18.50463867 C8.00144845 21.00426277 8.62511413 23.38659923 9 26 C8 27 8 27 4.4375 27.0625 C3.303125 27.041875 2.16875 27.02125 1 27 C0.34 25.35 -0.32 23.7 -1 22 C-3.31 22 -5.62 22 -8 22 C-8.33 23.65 -8.66 25.3 -9 27 C-11.31 27 -13.62 27 -16 27 C-17.15108532 23.54674403 -16.85455742 22.948812 -15.56640625 19.69140625 C-15.24736328 18.86189453 -14.92832031 18.03238281 -14.59960938 17.17773438 C-14.25736328 16.31470703 -13.91511719 15.45167969 -13.5625 14.5625 C-12.89111708 12.85782681 -12.22552086 11.15086045 -11.56640625 9.44140625 C-11.26677979 8.68545166 -10.96715332 7.92949707 -10.65844727 7.15063477 C-9.80483285 4.7374031 -9.80483285 4.7374031 -10 1 C-6.78548731 -0.60725635 -3.56387464 -0.05748185 0 0 Z M-5 12 C-5 12.99 -5 13.98 -5 15 C-4.34 14.67 -3.68 14.34 -3 14 C-3.66 13.34 -4.32 12.68 -5 12 Z " fill="#B32278" transform="translate(365,313)"/>
<path d="M0 0 C11.63856502 -1.0735426 11.63856502 -1.0735426 14.9765625 1.55859375 C16.3125 3.5 16.3125 3.5 18 7 C19.32 4.69 20.64 2.38 22 0 C24.64 0 27.28 0 30 0 C28.87106919 4.177044 27.12283353 7.55537137 24.9375 11.25 C21.9686524 16.51591216 21.02605182 20.99505574 21 27 C18.66705225 27.04241723 16.33297433 27.04092937 14 27 C12.37115919 25.37115919 12.87934771 23.37235643 12.8125 21.125 C12.30406686 14.4364744 9.53453574 9.58824153 6 4 C5.97494385 4.6612085 5.9498877 5.32241699 5.92407227 6.00366211 C5.80846898 8.98182305 5.68558246 11.9596392 5.5625 14.9375 C5.52318359 15.97841797 5.48386719 17.01933594 5.44335938 18.09179688 C5.40146484 19.08115234 5.35957031 20.07050781 5.31640625 21.08984375 C5.26141968 22.46450806 5.26141968 22.46450806 5.20532227 23.86694336 C5 26 5 26 4 27 C1.66702567 27.04092937 -0.66705225 27.04241723 -3 27 C-3 26.34 -3 25.68 -3 25 C-1.02 24.67 0.96 24.34 3 24 C3.33 16.41 3.66 8.82 4 1 C2.68 0.67 1.36 0.34 0 0 Z " fill="#C6348B" transform="translate(321,313)"/>
<path d="M0 0 C2.31 0 4.62 0 7 0 C7.66 1.98 8.32 3.96 9 6 C9.66 6 10.32 6 11 6 C11.309375 5.195625 11.61875 4.39125 11.9375 3.5625 C13 1 13 1 14 0 C16.67058851 -0.14115161 19.32432238 -0.04247107 22 0 C21.40270119 3.40989575 20.17842022 5.21133728 17.9375 7.8125 C15.72966295 10.62103734 14.58838647 12.38990637 14.625 16 C14.74875 16.99 14.8725 17.98 15 19 C12.525 18.01 12.525 18.01 10 17 C10 16.34 10 15.68 10 15 C9.01 15.495 9.01 15.495 8 16 C7.5316735 18.58605332 7.5316735 18.58605332 7.375 21.5625 C7.26285156 23.08037109 7.26285156 23.08037109 7.1484375 24.62890625 C7.09945313 25.41136719 7.05046875 26.19382812 7 27 C4.69 27 2.38 27 0 27 C0 18.09 0 9.18 0 0 Z " fill="#B41F75" transform="translate(259,313)"/>
<path d="M0 0 C0.87454834 0.00523682 1.74909668 0.01047363 2.65014648 0.01586914 C3.59438477 0.0190918 4.53862305 0.02231445 5.51147461 0.02563477 C6.50469727 0.03401367 7.49791992 0.04239258 8.52124023 0.05102539 C9.51833008 0.05553711 10.51541992 0.06004883 11.54272461 0.06469727 C14.01478872 0.07652532 16.48673541 0.0930069 18.95874023 0.11352539 C19.0012838 2.11307285 18.99954806 4.11394175 18.95874023 6.11352539 C17.95874023 7.11352539 17.95874023 7.11352539 14.89624023 7.17602539 C13.92686523 7.15540039 12.95749023 7.13477539 11.95874023 7.11352539 C12.0425293 8.13833008 12.12631836 9.16313477 12.21264648 10.21899414 C12.31586821 11.57964418 12.41871288 12.94032286 12.52124023 14.30102539 C12.57731445 14.97456055 12.63338867 15.6480957 12.69116211 16.34204102 C12.96837787 20.13065639 12.92385184 23.43180333 11.95874023 27.11352539 C9.62579248 27.15594262 7.29171457 27.15445476 4.95874023 27.11352539 C3.95874023 26.11352539 3.95874023 26.11352539 3.84521484 24.25585938 C3.85307007 23.06972046 3.85307007 23.06972046 3.86108398 21.85961914 C3.86430664 21.00561523 3.8675293 20.15161133 3.87084961 19.27172852 C3.87922852 18.37389648 3.88760742 17.47606445 3.89624023 16.55102539 C3.90075195 15.64932617 3.90526367 14.74762695 3.90991211 13.81860352 C3.92173799 11.58351225 3.93821803 9.34855102 3.95874023 7.11352539 C2.50467773 7.14446289 2.50467773 7.14446289 1.02124023 7.17602539 C-2.04125977 7.11352539 -2.04125977 7.11352539 -3.04125977 6.11352539 C-3.16625977 3.61352539 -3.16625977 3.61352539 -3.04125977 1.11352539 C-2.04125977 0.11352539 -2.04125977 0.11352539 0 0 Z " fill="#C03C87" transform="translate(401.041259765625,312.886474609375)"/>
<path d="M0 0 C5.61 0 11.22 0 17 0 C17 1.65 17 3.3 17 5 C-26.89 5 -70.78 5 -116 5 C-116 4.67 -116 4.34 -116 4 C-109.59866979 2.84799094 -103.31407286 2.86589941 -96.82250977 2.88647461 C-95.00681236 2.88625557 -95.00681236 2.88625557 -93.1544342 2.8860321 C-89.85327626 2.88660729 -86.55218171 2.89160497 -83.25103498 2.89860606 C-79.79438799 2.90487897 -76.33774006 2.90544651 -72.88108826 2.90663147 C-66.34352574 2.90973321 -59.80598005 2.91793094 -53.26842493 2.92798096 C-45.82221556 2.93917811 -38.37600536 2.94466161 -30.92978966 2.94967639 C-15.61985005 2.96011456 -0.3099272 2.9776915 15 3 C15 2.34 15 1.68 15 1 C10.05 1 5.1 1 0 1 C0 0.67 0 0.34 0 0 Z " fill="#146091" transform="translate(425,301)"/>
<path d="M0 0 C2.31 0 4.62 0 7 0 C7 6.93 7 13.86 7 21 C10.3 21 13.6 21 17 21 C17 22.98 17 24.96 17 27 C14.18743719 27.02684312 11.37512759 27.04676188 8.5625 27.0625 C7.76005859 27.07087891 6.95761719 27.07925781 6.13085938 27.08789062 C4.08704779 27.0965143 2.04316098 27.0522815 0 27 C-1.74545605 25.25454395 -1.1302316 22.83875783 -1.1328125 20.46875 C-1.13410156 19.34855469 -1.13539063 18.22835938 -1.13671875 17.07421875 C-1.13285156 15.89472656 -1.12898438 14.71523438 -1.125 13.5 C-1.12886719 12.32050781 -1.13273437 11.14101563 -1.13671875 9.92578125 C-1.13542969 8.80558594 -1.13414062 7.68539063 -1.1328125 6.53125 C-1.13168457 5.49548828 -1.13055664 4.45972656 -1.12939453 3.39257812 C-1 1 -1 1 0 0 Z " fill="#BF0B74" transform="translate(383,313)"/>
<path d="M0 0 C0.33 0 0.66 0 1 0 C1.0232404 13.59616069 1.04097449 27.1923166 1.05181217 40.78849316 C1.0570155 47.10273633 1.06406651 53.41696585 1.07543945 59.73120117 C1.08635936 65.83256984 1.09229602 71.93392542 1.09487724 78.03530312 C1.09671516 80.35511798 1.10030395 82.67493219 1.10573006 84.99474144 C1.1581055 108.32919574 1.1581055 108.32919574 0 119 C-0.33 119 -0.66 119 -1 119 C-1.95976512 79.20037812 -2.30694702 39.75802312 0 0 Z " fill="#0E649B" transform="translate(174,135)"/>
<path d="M0 0 C0.19809361 5.46243138 0.34307407 10.92276519 0.43945312 16.38793945 C0.47963212 18.2457318 0.53418925 20.10327196 0.60351562 21.96020508 C0.70083198 24.6342581 0.7459756 27.30496552 0.78125 29.98046875 C0.82254028 30.80773972 0.86383057 31.63501068 0.90637207 32.48735046 C0.90824419 34.9053353 0.81864356 36.72148709 0 39 C-3.62969552 42.44650636 -7.99527029 44.53080659 -13 45 C-13.495 43.515 -13.495 43.515 -14 42 C-9.545 41.505 -9.545 41.505 -5 41 C-5 40.01 -5 39.02 -5 38 C-4.34 38 -3.68 38 -3 38 C-3.33 26.78 -3.66 15.56 -4 4 C-5.98 4.33 -7.96 4.66 -10 5 C-5 -1.5 -5 -1.5 0 0 Z " fill="#498FBC" transform="translate(441,233)"/>
<path d="M0 0 C0.33 0 0.66 0 1 0 C1 12.87 1 25.74 1 39 C3.93076346 40.46538173 6.89701357 40.17866576 10.11181641 40.20532227 C10.84362625 40.21522186 11.5754361 40.22512146 12.329422 40.23532104 C14.75343568 40.26696199 17.17746898 40.29170366 19.6015625 40.31640625 C21.28022782 40.33697354 22.95888793 40.35796995 24.63754272 40.37937927 C29.05981231 40.43462318 33.48212881 40.48402221 37.90447998 40.53222656 C42.41552922 40.58242467 46.92651018 40.63811955 51.4375 40.69335938 C60.29160836 40.8009693 69.14577596 40.90240797 78 41 C78 41.33 78 41.66 78 42 C51.93 42 25.86 42 -1 42 C-1.94367892 38.22528434 -2.11521178 35.34659165 -2.09765625 31.484375 C-2.09443359 30.23398437 -2.09121094 28.98359375 -2.08789062 27.6953125 C-2.07951172 26.39335937 -2.07113281 25.09140625 -2.0625 23.75 C-2.05798828 22.43257813 -2.05347656 21.11515625 -2.04882812 19.7578125 C-2.03704316 16.50516259 -2.02059011 13.25260416 -2 10 C-1.67 10 -1.34 10 -1 10 C-0.67 6.7 -0.34 3.4 0 0 Z " fill="#5492B9" transform="translate(174,241)"/>
<path d="M0 0 C2.97 0.33 5.94 0.66 9 1 C8.67 1.99 8.34 2.98 8 4 C9.32 4.66 10.64 5.32 12 6 C10.02 6 8.04 6 6 6 C6 11.94 6 17.88 6 24 C4.35 23.67 2.7 23.34 1 23 C-0.23402862 18.22907044 -0.11265112 13.57530554 -0.0625 8.6875 C-0.05798828 7.85154297 -0.05347656 7.01558594 -0.04882812 6.15429688 C-0.03710548 4.10283351 -0.01917203 2.05140727 0 0 Z " fill="#AB0F68" transform="translate(422,313)"/>
<path d="M0 0 C0.66 0 1.32 0 2 0 C2.33 0.66 2.66 1.32 3 2 C3.99 2.33 4.98 2.66 6 3 C6.66 2.01 7.32 1.02 8 0 C9.17249353 1.45365269 10.33783816 2.91307419 11.5 4.375 C12.1496875 5.18710937 12.799375 5.99921875 13.46875 6.8359375 C15 9 15 9 15 11 C20.94 11 26.88 11 33 11 C33 11.33 33 11.66 33 12 C28.60484993 12.20349988 24.21091011 12.3277078 19.8125 12.4375 C18.56662109 12.49615234 17.32074219 12.55480469 16.03710938 12.61523438 C6.97776159 12.78524894 6.97776159 12.78524894 4.02099609 10.41064453 C2.63671875 8.47265625 2.63671875 8.47265625 1 5 C0.67 6.65 0.34 8.3 0 10 C-0.33 10 -0.66 10 -1 10 C-1.02689216 8.52093108 -1.04634621 7.04172517 -1.0625 5.5625 C-1.07410156 4.73878906 -1.08570313 3.91507812 -1.09765625 3.06640625 C-1 1 -1 1 0 0 Z " fill="#D464AD" transform="translate(267,328)"/>
<path d="M0 0 C24.09 0 48.18 0 73 0 C73 0.66 73 1.32 73 2 C72.42592911 2.01030746 71.85185822 2.02061493 71.26039124 2.03123474 C65.30734338 2.13907434 59.35445385 2.25368977 53.40161133 2.37231445 C51.17736104 2.41573588 48.95307585 2.45740545 46.72875977 2.49731445 C43.53911805 2.55484306 40.3496532 2.61858684 37.16015625 2.68359375 C35.65860741 2.70866249 35.65860741 2.70866249 34.12672424 2.73423767 C33.20584518 2.75418289 32.28496613 2.77412811 31.33618164 2.79467773 C30.52121719 2.81022202 29.70625275 2.8257663 28.86659241 2.84178162 C26.98590881 2.79913863 26.98590881 2.79913863 26 4 C24.14630389 4.08737645 22.28932459 4.10698153 20.43359375 4.09765625 C19.30888672 4.09443359 18.18417969 4.09121094 17.02539062 4.08789062 C15.84138672 4.07951172 14.65738281 4.07113281 13.4375 4.0625 C12.24962891 4.05798828 11.06175781 4.05347656 9.83789062 4.04882812 C6.89187774 4.03699675 3.94596319 4.02051287 1 4 C0.67 2.68 0.34 1.36 0 0 Z " fill="#3480AE" transform="translate(46,300)"/>
<path d="M0 0 C0.33 0.99 0.66 1.98 1 3 C4.3 3 7.6 3 11 3 C11.04254356 4.99954746 11.04080783 7.00041636 11 9 C10 10 10 10 7.93359375 10.09765625 C7.10988281 10.08605469 6.28617187 10.07445312 5.4375 10.0625 C4.61121094 10.05347656 3.78492188 10.04445313 2.93359375 10.03515625 C2.29550781 10.02355469 1.65742188 10.01195312 1 10 C1 11.65 1 13.3 1 15 C4.63 15 8.26 15 12 15 C12 16.65 12 18.3 12 20 C11.34 19.67 10.68 19.34 10 19 C10 18.01 10 17.02 10 16 C8.35 16.33 6.7 16.66 5 17 C5 17.66 5 18.32 5 19 C1.7 18.67 -1.6 18.34 -5 18 C-5 13.05 -5 8.1 -5 3 C-4.01 3 -3.02 3 -2 3 C-2 7.29 -2 11.58 -2 16 C-1.34 16 -0.68 16 0 16 C0 13.69 0 11.38 0 9 C2.95664519 7.5216774 5.74229737 7.93967217 9 8 C9 7.01 9 6.02 9 5 C6.03 4.67 3.06 4.34 0 4 C0 2.68 0 1.36 0 0 Z " fill="#BF287F" transform="translate(289,319)"/>
<path d="M0 0 C1.32 0.33 2.64 0.66 4 1 C4.04935824 6.23273331 4.08569949 11.46533176 4.10986328 16.69824219 C4.11993431 18.47919067 4.13359185 20.26012257 4.15087891 22.04101562 C4.17507913 24.59769783 4.18647184 27.15416185 4.1953125 29.7109375 C4.20563507 30.50994476 4.21595764 31.30895203 4.22659302 32.13217163 C4.22699226 34.0895722 4.12241069 36.04643077 4 38 C3.34 38.66 2.68 39.32 2 40 C-1.79692846 40 -3.68612358 38.60195143 -6.3125 36.0625 C-9 33.30730479 -9 33.30730479 -9 31 C-8.21625 31.185625 -7.4325 31.37125 -6.625 31.5625 C-4.02910225 32.25962266 -4.02910225 32.25962266 -2 31 C-1.34 32.32 -0.68 33.64 0 35 C-0.495 35.495 -0.495 35.495 -1 36 C-0.01 36.33 0.98 36.66 2 37 C1.88173257 32.21264074 1.75748287 27.42548829 1.62768555 22.63842773 C1.58437251 21.00988996 1.54269482 19.38130784 1.50268555 17.75268555 C1.44489497 15.41181065 1.38122602 13.07115824 1.31640625 10.73046875 C1.29969376 10.00224411 1.28298126 9.27401947 1.26576233 8.52372742 C1.17532762 5.43833061 0.98276007 2.94828022 0 0 Z " fill="#3F8BB4" transform="translate(436,138)"/>
<path d="M0 0 C0 0.66 0 1.32 0 2 C-26.4 2 -52.8 2 -80 2 C-80 1.67 -80 1.34 -80 1 C-78.84290527 0.97494385 -77.68581055 0.9498877 -76.49365234 0.92407227 C-71.12069418 0.80677579 -65.74784081 0.68503985 -60.375 0.5625 C-59.41072083 0.54076721 -58.44644165 0.51903442 -57.45294189 0.49664307 C-46.75139993 0.2529838 -36.06372022 -0.02718344 -25.375 -0.625 C-16.83770889 -1.09523227 -8.51529463 -0.79297156 0 0 Z " fill="#0D75B7" transform="translate(440,302)"/>
<path d="M0 0 C2.64 0 5.28 0 8 0 C8 0.99 8 1.98 8 3 C6.35 3.66 4.7 4.32 3 5 C2.67 10.94 2.34 16.88 2 23 C2.99 23 3.98 23 5 23 C5 19.7 5 16.4 5 13 C5.66 12.67 6.32 12.34 7 12 C7 16.95 7 21.9 7 27 C4.69 27 2.38 27 0 27 C0 18.09 0 9.18 0 0 Z " fill="#B43C7F" transform="translate(303,313)"/>
<path d="M0 0 C4.63768531 3.6438956 6.07369925 8.63094897 8 14 C8.66 14 9.32 14 10 14 C9.89008359 18.08388613 9.75946145 22.16685411 9.625 26.25 C9.57859375 27.98830078 9.57859375 27.98830078 9.53125 29.76171875 C9.47324219 31.43427734 9.47324219 31.43427734 9.4140625 33.140625 C9.3826416 34.16704102 9.3512207 35.19345703 9.31884766 36.25097656 C9.00363375 38.96867073 8.38967649 40.66924435 7 43 C6.67 43 6.34 43 6 43 C6.01160156 41.74445313 6.02320313 40.48890625 6.03515625 39.1953125 C6.21128826 23.99802697 6.21128826 23.99802697 4 9 C3.01 9.33 2.02 9.66 1 10 C0.67 6.7 0.34 3.4 0 0 Z " fill="#388DBB" transform="translate(163,205)"/>
<path d="M0 0 C1.9453125 -0.29296875 1.9453125 -0.29296875 4.125 -0.1875 C5.40375 -0.125625 6.6825 -0.06375 8 0 C6.46197215 5.84450583 3.5439162 11.12711522 0 16 C-0.66 16 -1.32 16 -2 16 C-2.33 14.68 -2.66 13.36 -3 12 C-3.99 12 -4.98 12 -6 12 C-6 11.01 -6 10.02 -6 9 C-5.01 9 -4.02 9 -3 9 C-2.87625 8.071875 -2.7525 7.14375 -2.625 6.1875 C-2 3 -2 3 0 0 Z " fill="#B20F6B" transform="translate(343,313)"/>
<path d="M0 0 C-2.41351791 0.80246408 -4.8302032 1.59186576 -7.25 2.375 C-7.91257812 2.59671875 -8.57515625 2.8184375 -9.2578125 3.046875 C-20.18150658 6.5507014 -30.83113268 7.28617837 -42.25 7.125 C-43.48363281 7.11597656 -44.71726562 7.10695313 -45.98828125 7.09765625 C-48.99240024 7.07436851 -51.99608943 7.04166756 -55 7 C-55.33 6.34 -55.66 5.68 -56 5 C-28.83596307 3.80611597 -28.83596307 3.80611597 -18 4 C-18 3.34 -18 2.68 -18 2 C-15.36 2 -12.72 2 -10 2 C-10 1.34 -10 0.68 -10 0 C-6.26432828 -0.76411467 -3.65188082 -1.07174763 0 0 Z " fill="#3E86B2" transform="translate(427,279)"/>
<path d="M0 0 C1.04994141 -0.00386719 2.09988281 -0.00773437 3.18164062 -0.01171875 C13.81137435 0.0016604 13.81137435 0.0016604 18.9375 1.125 C19.4325 2.115 19.4325 2.115 19.9375 3.125 C6.7375 3.125 -6.4625 3.125 -20.0625 3.125 C-20.0625 2.465 -20.0625 1.805 -20.0625 1.125 C-13.34875991 0.10703219 -6.78385156 -0.02507893 0 0 Z " fill="#3282B5" transform="translate(391.0625,125.875)"/>
<path d="M0 0 C0.33 0 0.66 0 1 0 C1.06058594 1.24136719 1.12117188 2.48273438 1.18359375 3.76171875 C1.26803623 5.40365577 1.35268236 7.04558232 1.4375 8.6875 C1.47681641 9.50412109 1.51613281 10.32074219 1.55664062 11.16210938 C1.76898003 15.19655811 2.04447922 19.05747309 3 23 C4.32 23.33 5.64 23.66 7 24 C7 18.06 7 12.12 7 6 C7.33 6 7.66 6 8 6 C8 10.95 8 15.9 8 21 C9.65 21 11.3 21 13 21 C12.34 22.32 11.68 23.64 11 25 C11.99 25.33 12.98 25.66 14 26 C13 27 13 27 10.05859375 27.09765625 C8.86363281 27.08605469 7.66867187 27.07445312 6.4375 27.0625 C4.64119141 27.04896484 4.64119141 27.04896484 2.80859375 27.03515625 C1.88175781 27.02355469 0.95492188 27.01195312 0 27 C-0.99384397 23.74741974 -1.04826731 20.96534629 -0.87890625 17.578125 C-0.83056641 16.55332031 -0.78222656 15.52851563 -0.73242188 14.47265625 C-0.67634766 13.40917969 -0.62027344 12.34570312 -0.5625 11.25 C-0.51029297 10.17105469 -0.45808594 9.09210938 -0.40429688 7.98046875 C-0.27480531 5.32000578 -0.13984639 2.65993548 0 0 Z " fill="#BB4B8B" transform="translate(421,313)"/>
<path d="M0 0 C2.05078125 0.03255208 4.1015625 0.06510417 6.15234375 0.09765625 C5.54035999 3.53715989 4.23175528 5.6133011 2.08984375 8.34765625 C1.54199219 9.0540625 0.99414062 9.76046875 0.4296875 10.48828125 C0.00816406 11.019375 -0.41335938 11.55046875 -0.84765625 12.09765625 C-1.17765625 10.77765625 -1.50765625 9.45765625 -1.84765625 8.09765625 C-2.23953125 8.57203125 -2.63140625 9.04640625 -3.03515625 9.53515625 C-5.25573999 11.44945258 -6.98141334 11.71032613 -9.84765625 12.09765625 C-9.51765625 8.79765625 -9.18765625 5.49765625 -8.84765625 2.09765625 C-8.18765625 3.41765625 -7.52765625 4.73765625 -6.84765625 6.09765625 C-6.18765625 6.09765625 -5.52765625 6.09765625 -4.84765625 6.09765625 C-4.53828125 5.29328125 -4.22890625 4.48890625 -3.91015625 3.66015625 C-2.4461379 0.12928847 -2.4461379 0.12928847 0 0 Z " fill="#B5297B" transform="translate(274.84765625,312.90234375)"/>
<path d="M0 0 C2.64 0 5.28 0 8 0 C9.31905326 3.39332391 10.62907401 6.79006569 11.9375 10.1875 C12.31068359 11.14720703 12.68386719 12.10691406 13.06835938 13.09570312 C13.42607422 14.02705078 13.78378906 14.95839844 14.15234375 15.91796875 C14.48226318 16.77156982 14.81218262 17.6251709 15.15209961 18.50463867 C16.00144845 21.00426277 16.62511413 23.38659923 17 26 C16 27 16 27 12.4375 27.0625 C11.303125 27.041875 10.16875 27.02125 9 27 C8.34 25.35 7.68 23.7 7 22 C4.69 22 2.38 22 0 22 C0 21.67 0 21.34 0 21 C5.59488611 20.71551427 8.22813607 20.8159717 13 24 C11.44761232 16.77754385 9.81627358 9.83952155 7 3 C3.37114676 2.84850702 3.37114676 2.84850702 0 4 C0 2.68 0 1.36 0 0 Z " fill="#AE5585" transform="translate(357,313)"/>
<path d="M0 0 C1.98 0 3.96 0 6 0 C5.01 0.66 4.02 1.32 3 2 C2.49156938 4.31753588 2.49156938 4.31753588 2.48828125 7.0078125 C2.45283203 7.99394531 2.41738281 8.98007812 2.38085938 9.99609375 C2.35830078 11.02863281 2.33574219 12.06117188 2.3125 13.125 C2.27833984 14.16527344 2.24417969 15.20554687 2.20898438 16.27734375 C2.12633831 18.85117834 2.06149784 21.42557329 2 24 C7.28 24 12.56 24 18 24 C18 24.66 18 25.32 18 26 C15.18743719 26.02684312 12.37512759 26.04676188 9.5625 26.0625 C8.76005859 26.07087891 7.95761719 26.07925781 7.13085938 26.08789062 C5.08704779 26.0965143 3.04316098 26.0522815 1 26 C0 25 0 25 -0.11352539 22.59155273 C-0.10828857 21.54942627 -0.10305176 20.5072998 -0.09765625 19.43359375 C-0.09443359 18.30888672 -0.09121094 17.18417969 -0.08789062 16.02539062 C-0.07951172 14.84138672 -0.07113281 13.65738281 -0.0625 12.4375 C-0.05798828 11.24962891 -0.05347656 10.06175781 -0.04882812 8.83789062 C-0.03699675 5.89187774 -0.02051287 2.94596319 0 0 Z " fill="#BF7AA7" transform="translate(382,314)"/>
<path d="M0 0 C1.32 0 2.64 0 4 0 C6.29013653 3.4352048 6.17842973 4.985331 6 9 C5.01 9.33 4.02 9.66 3 10 C2.67 13.3 2.34 16.6 2 20 C1.01 20 0.02 20 -1 20 C-1.02689449 17.04160645 -1.04678741 14.08345573 -1.0625 11.125 C-1.07087891 10.28324219 -1.07925781 9.44148438 -1.08789062 8.57421875 C-1.09111328 7.76855469 -1.09433594 6.96289062 -1.09765625 6.1328125 C-1.10289307 5.38918457 -1.10812988 4.64555664 -1.11352539 3.87939453 C-1 2 -1 2 0 0 Z " fill="#BA0D72" transform="translate(306,316)"/>
<path d="M0 0 C0.33 0 0.66 0 1 0 C1.33 2.31 1.66 4.62 2 7 C2.66 7 3.32 7 4 7 C4.66 5.68 5.32 4.36 6 3 C6 8.61 6 14.22 6 20 C4.02 20 2.04 20 0 20 C0 13.4 0 6.8 0 0 Z " fill="#A91166" transform="translate(406,319)"/>
<path d="M0 0 C1.32 0.33 2.64 0.66 4 1 C5.84902871 7.99989439 4.11841975 11.60310889 0.54296875 17.77734375 C-1 20 -1 20 -3 21 C-3 19.35 -3 17.7 -3 16 C-2.01 15.67 -1.02 15.34 0 15 C-0.350625 13.948125 -0.70125 12.89625 -1.0625 11.8125 C-2.23848812 7.03014833 -1.51628316 4.54884948 0 0 Z " fill="#2C83B8" transform="translate(298,243)"/>
<path d="M0 0 C0.66 0 1.32 0 2 0 C2 6.27 2 12.54 2 19 C4.31 19 6.62 19 9 19 C9.99 19.33 10.98 19.66 12 20 C12 19.34 12 18.68 12 18 C11.01 17.67 10.02 17.34 9 17 C11.64 17 14.28 17 17 17 C17.33 18.32 17.66 19.64 18 21 C12.06 21 6.12 21 0 21 C0 14.07 0 7.14 0 0 Z " fill="#91175C" transform="translate(282,318)"/>
<path d="M0 0 C0.33 0.66 0.66 1.32 1 2 C2.32 1.67 3.64 1.34 5 1 C5.33 2.65 5.66 4.3 6 6 C7.32 6.33 8.64 6.66 10 7 C9.67 7.66 9.34 8.32 9 9 C9.99 9.268125 10.98 9.53625 12 9.8125 C16.09612784 10.976839 20.02843633 12.46711578 24 14 C24 15.32 24 16.64 24 18 C14.34066199 15.39677415 6.56521374 10.57524663 0 3 C0 2.01 0 1.02 0 0 Z " fill="#3C8AB4" transform="translate(52,262)"/>
<path d="M0 0 C0.66 0.66 1.32 1.32 2 2 C1.69728039 3.34061543 1.36162029 4.67405895 1 6 C1.33 6.99 1.66 7.98 2 9 C-0.31 9 -2.62 9 -5 9 C-5.33 10.65 -5.66 12.3 -6 14 C-7.65 14 -9.3 14 -11 14 C-11.33 13.34 -11.66 12.68 -12 12 C-10.6875 9.375 -10.6875 9.375 -9 7 C-8.34 7 -7.68 7 -7 7 C-6.67 6.01 -6.34 5.02 -6 4 C-4.02 4 -2.04 4 0 4 C0 2.68 0 1.36 0 0 Z " fill="#B41670" transform="translate(362,325)"/>
<path d="M0 0 C0.87454834 0.00523682 1.74909668 0.01047363 2.65014648 0.01586914 C3.59438477 0.0190918 4.53862305 0.02231445 5.51147461 0.02563477 C6.50469727 0.03401367 7.49791992 0.04239258 8.52124023 0.05102539 C9.51833008 0.05553711 10.51541992 0.06004883 11.54272461 0.06469727 C14.01478872 0.07652532 16.48673541 0.0930069 18.95874023 0.11352539 C18.95874023 0.44352539 18.95874023 0.77352539 18.95874023 1.11352539 C14.00874023 1.44352539 9.05874023 1.77352539 3.95874023 2.11352539 C4.28874023 2.77352539 4.61874023 3.43352539 4.95874023 4.11352539 C5.04300118 5.78098599 5.06599166 7.45177726 5.05639648 9.12133789 C5.05317383 10.1074707 5.04995117 11.09360352 5.04663086 12.10961914 C5.03825195 13.1421582 5.02987305 14.17469727 5.02124023 15.23852539 C5.01672852 16.27879883 5.0122168 17.31907227 5.00756836 18.39086914 C4.99575975 20.96514501 4.97929098 23.53930685 4.95874023 26.11352539 C4.62874023 26.11352539 4.29874023 26.11352539 3.95874023 26.11352539 C3.95874023 19.84352539 3.95874023 13.57352539 3.95874023 7.11352539 C1.97874023 7.11352539 -0.00125977 7.11352539 -2.04125977 7.11352539 C-3.04125977 6.11352539 -3.04125977 6.11352539 -3.16625977 3.61352539 C-2.99390886 0.16650731 -2.99390886 0.16650731 0 0 Z " fill="#D67FAD" transform="translate(401.041259765625,312.886474609375)"/>
<path d="M0 0 C0.33 0.99 0.66 1.98 1 3 C1.66 3.33 2.32 3.66 3 4 C3.33 4.99 3.66 5.98 4 7 C6.00016466 8.20882096 6.00016466 8.20882096 8 9 C7.0925 9.0825 6.185 9.165 5.25 9.25 C1.5334072 10.10767526 0.30337872 11.0141387 -2 14 C-2.7872678 16.1381966 -2.7872678 16.1381966 -3 18 C-1.35 18.33 0.3 18.66 2 19 C2 19.33 2 19.66 2 20 C-0.31 20 -2.62 20 -5 20 C-6.10960573 16.67118282 -5.9412896 16.12635748 -4.78515625 12.98828125 C-4.51123047 12.23095703 -4.23730469 11.47363281 -3.95507812 10.69335938 C-3.66052734 9.90767578 -3.36597656 9.12199219 -3.0625 8.3125 C-2.77181641 7.51521484 -2.48113281 6.71792969 -2.18164062 5.89648438 C-1.46260698 3.92798243 -0.73236297 1.96358188 0 0 Z " fill="#BD2980" transform="translate(354,320)"/>
<path d="M0 0 C0.33 0 0.66 0 1 0 C1.82045125 7.5481515 -1.40933173 13.13695289 -5.54296875 19.30078125 C-6.26419922 20.14189453 -6.26419922 20.14189453 -7 21 C-7.66 21 -8.32 21 -9 21 C-9 21.66 -9 22.32 -9 23 C-10.6796875 24.32421875 -10.6796875 24.32421875 -12.875 25.6875 C-13.59429687 26.14511719 -14.31359375 26.60273438 -15.0546875 27.07421875 C-16.01761719 27.53248047 -16.01761719 27.53248047 -17 28 C-17.66 27.67 -18.32 27.34 -19 27 C-19 26.34 -19 25.68 -19 25 C-17.68 25 -16.36 25 -15 25 C-15 23.68 -15 22.36 -15 21 C-14.34 21 -13.68 21 -13 21 C-12.67 20.34 -12.34 19.68 -12 19 C-11.195625 18.896875 -10.39125 18.79375 -9.5625 18.6875 C-8.2940625 18.3471875 -8.2940625 18.3471875 -7 18 C-5.89691425 15.71822735 -5.89691425 15.71822735 -5 13 C-4.65839844 12.15179688 -4.31679688 11.30359375 -3.96484375 10.4296875 C-3.62582031 9.58664063 -3.28679687 8.74359375 -2.9375 7.875 C-2.59589844 7.02679688 -2.25429688 6.17859375 -1.90234375 5.3046875 C-1.21748681 3.55548578 -0.59403162 1.78209487 0 0 Z " fill="#488AB4" transform="translate(296,170)"/>
<path d="M0 0 C-0.33 0.99 -0.66 1.98 -1 3 C-2.72626985 3.74913597 -4.45586386 4.49295762 -6.2109375 5.171875 C-8.66766575 6.30905052 -10.24858768 7.96836171 -12 10 C-11.34 10.33 -10.68 10.66 -10 11 C-15.75 10.125 -15.75 10.125 -18 9 C-18.33 9.99 -18.66 10.98 -19 12 C-19.99 11.34 -20.98 10.68 -22 10 C-5.81299659 -0.51291146 -5.81299659 -0.51291146 0 0 Z " fill="#2481B8" transform="translate(359,132)"/>
<path d="M0 0 C0.66 0.33 1.32 0.66 2 1 C2 1.66 2 2.32 2 3 C3.32 3 4.64 3 6 3 C6 3.99 6 4.98 6 6 C6.763125 5.773125 7.52625 5.54625 8.3125 5.3125 C11 5 11 5 12.8125 6.3125 C14 8 14 8 14 10 C14.86625 10.12375 15.7325 10.2475 16.625 10.375 C19.89513853 10.98058121 22.87256899 11.88306035 26 13 C25.67 13.66 25.34 14.32 25 15 C19.65601082 14.43879737 15.58685486 12.59587851 10.875 10.1875 C10.17246094 9.84396484 9.46992188 9.50042969 8.74609375 9.14648438 C4.88100504 7.19932721 1.88048748 5.32076925 -1 2 C-0.67 1.34 -0.34 0.68 0 0 Z " fill="#3280B4" transform="translate(335,268)"/>
<path d="M0 0 C3.3125 0.1875 3.3125 0.1875 7 1 C9.88057657 4.36067267 10.49613976 7.66680191 11 12 C10.01 11.67 9.02 11.34 8 11 C6.8125 7.4375 6.8125 7.4375 6 4 C3.69 4 1.38 4 -1 4 C-1.33 5.65 -1.66 7.3 -2 9 C-2.66 9 -3.32 9 -4 9 C-4 9.66 -4 10.32 -4 11 C-4.66 11 -5.32 11 -6 11 C-6 11.99 -6 12.98 -6 14 C-6.66 14 -7.32 14 -8 14 C-6.6744419 10.37723685 -5.05653045 7.36494652 -2.875 4.1875 C-2.33617188 3.39730469 -1.79734375 2.60710937 -1.2421875 1.79296875 C-0.83226563 1.20128906 -0.42234375 0.60960937 0 0 Z " fill="#5291B8" transform="translate(68,236)"/>
<path d="M0 0 C-0.33 0.66 -0.66 1.32 -1 2 C-11.23 2 -21.46 2 -32 2 C-32 1.34 -32 0.68 -32 0 C-27.41701735 -0.19683437 -22.83360802 -0.38085996 -18.25 -0.5625 C-16.29707031 -0.64661133 -16.29707031 -0.64661133 -14.3046875 -0.73242188 C-12.42910156 -0.80493164 -12.42910156 -0.80493164 -10.515625 -0.87890625 C-9.36352539 -0.9260376 -8.21142578 -0.97316895 -7.02441406 -1.02172852 C-4.43687478 -1.00313867 -2.44649046 -0.77962196 0 0 Z " fill="#2373A2" transform="translate(248,188)"/>
<path d="M0 0 C2.31 0 4.62 0 7 0 C7 6.93 7 13.86 7 21 C5 19 5 19 4.8046875 15.7421875 C4.82789063 14.46601563 4.85109375 13.18984375 4.875 11.875 C4.89304687 10.59367187 4.91109375 9.31234375 4.9296875 7.9921875 C4.95289063 7.00476563 4.97609375 6.01734375 5 5 C4.34 5 3.68 5 3 5 C2.67 8.3 2.34 11.6 2 15 C1.67 15 1.34 15 1 15 C0.97313447 13.02090602 0.95366625 11.04171029 0.9375 9.0625 C0.92589844 7.96035156 0.91429687 6.85820312 0.90234375 5.72265625 C1 3 1 3 2 2 C1.34 1.34 0.68 0.68 0 0 Z " fill="#AF2070" transform="translate(383,313)"/>
<path d="M0 0 C12.88096904 -0.68800428 12.88096904 -0.68800428 16.6875 1.6875 C19.06513929 4.06513929 20.10569939 5.7805178 21 9 C19.68 9 18.36 9 17 9 C17 7.68 17 6.36 17 5 C15.63875 5.309375 15.63875 5.309375 14.25 5.625 C10.88972103 6.0127245 9.75924185 5.80411967 7 4 C7 3.34 7 2.68 7 2 C4.69 1.67 2.38 1.34 0 1 C0 0.67 0 0.34 0 0 Z " fill="#BC4C8E" transform="translate(423,313)"/>
<path d="M0 0 C3.3 0 6.6 0 10 0 C12.7376287 4.67049515 13.33996234 7.98799719 13.1875 13.375 C13.16042969 14.62023437 13.13335937 15.86546875 13.10546875 17.1484375 C13.07066406 18.08945313 13.03585938 19.03046875 13 20 C12.34 20 11.68 20 11 20 C10.98582031 19.19175781 10.97164062 18.38351563 10.95703125 17.55078125 C10.74317302 10.77684863 10.74317302 10.77684863 7.75 4.875 C5.19597223 3.13361743 2.94297021 1.92493349 0 1 C0 0.67 0 0.34 0 0 Z " fill="#3988B4" transform="translate(122,227)"/>
<path d="M0 0 C0.95514676 3.07250006 1.00170571 3.99408687 0.0625 7.25 C-1.13033308 11.52163198 -1.19603704 15.71988583 -1.1875 20.125 C-1.18806396 20.80594727 -1.18862793 21.48689453 -1.18920898 22.18847656 C-1.15605402 25.32104945 -0.9567706 28.22436853 -0.36328125 31.3046875 C0 34 0 34 -2 37 C-5.24077954 23.92113972 -4.24193753 12.72581258 0 0 Z " fill="#4B8AB1" transform="translate(59,156)"/>
<path d="M0 0 C3.97794897 0.34590861 6.37251204 1.18625602 10 3 C5.545 3.495 5.545 3.495 1 4 C0.67 10.93 0.34 17.86 0 25 C-1.81342297 21.37315405 -2.25448381 20.28836445 -2.265625 16.5234375 C-2.26820313 15.688125 -2.27078125 14.8528125 -2.2734375 13.9921875 C-2.26570312 13.12851563 -2.25796875 12.26484375 -2.25 11.375 C-2.25773438 10.50359375 -2.26546875 9.6321875 -2.2734375 8.734375 C-2.27085937 7.90164062 -2.26828125 7.06890625 -2.265625 6.2109375 C-2.26336914 5.45087402 -2.26111328 4.69081055 -2.25878906 3.90771484 C-2 2 -2 2 0 0 Z " fill="#7096B5" transform="translate(174,128)"/>
<path d="M0 0 C1.32 0 2.64 0 4 0 C4.33872513 1.41538717 4.67074624 2.83237963 5 4.25 C5.185625 5.03890625 5.37125 5.8278125 5.5625 6.640625 C6 9 6 9 6 13 C2.74456771 12.65120368 1.98126893 11.97866739 -0.25 9.4375 C-0.8275 8.633125 -1.405 7.82875 -2 7 C-1.34 6.67 -0.68 6.34 0 6 C-0.2784375 4.7934375 -0.2784375 4.7934375 -0.5625 3.5625 C-0.706875 2.716875 -0.85125 1.87125 -1 1 C-0.67 0.67 -0.34 0.34 0 0 Z " fill="#BB0C73" transform="translate(364,324)"/>
<path d="M0 0 C1.32 0.66 2.64 1.32 4 2 C4 2.66 4 3.32 4 4 C4.66 4 5.32 4 6 4 C11.87815764 13.76077836 11.87815764 13.76077836 12 19 C11.37762749 20.35457546 10.71636813 21.69269785 10 23 C9.82984375 22.16855469 9.6596875 21.33710938 9.484375 20.48046875 C9.24203125 19.39378906 8.9996875 18.30710938 8.75 17.1875 C8.51796875 16.10855469 8.2859375 15.02960938 8.046875 13.91796875 C6.85928384 10.60777994 5.75943866 9.98976052 3 8 C3 6.68 3 5.36 3 4 C1.68 4 0.36 4 -1 4 C-0.67 2.68 -0.34 1.36 0 0 Z " fill="#4890BC" transform="translate(291,205)"/>
<path d="M0 0 C1.32 0 2.64 0 4 0 C5.37024221 7.91695502 5.37024221 7.91695502 4 11 C1 13 1 13 -2 13 C-1.34 8.71 -0.68 4.42 0 0 Z " fill="#BC0C71" transform="translate(438,322)"/>
<path d="M0 0 C4.29 0 8.58 0 13 0 C10 2 10 2 7.8125 1.625 C6.9153125 1.315625 6.9153125 1.315625 6 1 C5.97494385 1.7520874 5.9498877 2.5041748 5.92407227 3.27905273 C5.80849486 6.66539196 5.68559655 10.05142613 5.5625 13.4375 C5.52318359 14.62150391 5.48386719 15.80550781 5.44335938 17.02539062 C5.40146484 18.15009766 5.35957031 19.27480469 5.31640625 20.43359375 C5.26141968 21.99678345 5.26141968 21.99678345 5.20532227 23.59155273 C5 26 5 26 4 27 C1.66702567 27.04092937 -0.66705225 27.04241723 -3 27 C-3 26.34 -3 25.68 -3 25 C-1.02 24.67 0.96 24.34 3 24 C3.33 16.41 3.66 8.82 4 1 C2.68 0.67 1.36 0.34 0 0 Z " fill="#D683B8" transform="translate(321,313)"/>
<path d="M0 0 C6.27 0 12.54 0 19 0 C19 1.98 19 3.96 19 6 C18.34 5.01 17.68 4.02 17 3 C14.43904646 2.55884662 14.43904646 2.55884662 11.5625 2.6875 C10.11037109 2.69330078 10.11037109 2.69330078 8.62890625 2.69921875 C5.76991183 2.82368001 5.76991183 2.82368001 3 5 C2.01 5 1.02 5 0 5 C0 3.35 0 1.7 0 0 Z " fill="#C2669B" transform="translate(282,313)"/>
<path d="M0 0 C0.66 0 1.32 0 2 0 C2.09765625 6.15234375 2.09765625 6.15234375 2 8 C1.67 8.33 1.34 8.66 1 9 C0.76518307 11.18292774 0.58636677 13.37203174 0.4375 15.5625 C0.35371094 16.76003906 0.26992188 17.95757812 0.18359375 19.19140625 C0.12300781 20.11824219 0.06242187 21.04507813 0 22 C-0.99 22.33 -1.98 22.66 -3 23 C-2.22095672 7.25512528 -2.22095672 7.25512528 0 0 Z " fill="#3082B3" transform="translate(311,181)"/>
<path d="M0 0 C1.49080078 0.02707031 1.49080078 0.02707031 3.01171875 0.0546875 C3.77097656 0.07789063 4.53023438 0.10109375 5.3125 0.125 C5.3125 1.115 5.3125 2.105 5.3125 3.125 C1.6825 3.455 -1.9475 3.785 -5.6875 4.125 C-6.3475 5.775 -7.0075 7.425 -7.6875 9.125 C-8.3475 8.465 -9.0075 7.805 -9.6875 7.125 C-9.5 4.625 -9.5 4.625 -8.6875 2.125 C-5.26655758 -0.15562828 -4.00562778 -0.09425007 0 0 Z " fill="#B90C6E" transform="translate(293.6875,314.875)"/>
<path d="M0 0 C0.66 0.66 1.32 1.32 2 2 C0.60386935 1.85704109 -0.79189308 1.71048442 -2.1875 1.5625 C-2.96480469 1.48128906 -3.74210937 1.40007812 -4.54296875 1.31640625 C-7 1 -7 1 -9.21875 0.5 C-13.23156612 -0.22140514 -17.24457659 -0.36664891 -21.3125 -0.5625 C-22.14845703 -0.60568359 -22.98441406 -0.64886719 -23.84570312 -0.69335938 C-25.89696935 -0.79885307 -27.9484648 -0.89987315 -30 -1 C-30 -1.33 -30 -1.66 -30 -2 C-19.35987892 -3.37927496 -10.36968354 -3.20197027 0 0 Z " fill="#3E86B3" transform="translate(276,132)"/>
<path d="M0 0 C2.64 0 5.28 0 8 0 C6.45454854 5.47932789 3.84456788 10.11429181 1 15 C0.67 15 0.34 15 0 15 C0 13.02 0 11.04 0 9 C0.66 9 1.32 9 2 9 C2.33 7.02 2.66 5.04 3 3 C1.68 3 0.36 3 -1 3 C-0.67 2.01 -0.34 1.02 0 0 Z " fill="#B14C87" transform="translate(343,313)"/>
<path d="M0 0 C1.01320313 0.52400391 1.01320313 0.52400391 2.046875 1.05859375 C2.93890625 1.51363281 3.8309375 1.96867188 4.75 2.4375 C5.63171875 2.88996094 6.5134375 3.34242188 7.421875 3.80859375 C12.25441039 6.04181086 16.98451206 6.27875904 22.25 6.5625 C22.99507812 6.60568359 23.74015625 6.64886719 24.5078125 6.69335938 C26.338349 6.79896725 28.16915176 6.89994201 30 7 C30 7.33 30 7.66 30 8 C23.73 8.33 17.46 8.66 11 9 C11 8.34 11 7.68 11 7 C10.113125 7.0825 9.22625 7.165 8.3125 7.25 C4.26898131 6.94482878 2.79385882 5.87603114 0 3 C0 2.01 0 1.02 0 0 Z " fill="#629FC1" transform="translate(79,248)"/>
<path d="M0 0 C3.19624262 1.53837846 6.21605574 3.28866532 9.25 5.125 C10.14203125 5.66382813 11.0340625 6.20265625 11.953125 6.7578125 C12.96632813 7.37269531 12.96632813 7.37269531 14 8 C13.67 8.66 13.34 9.32 13 10 C12.01 10 11.02 10 10 10 C10 9.34 10 8.68 10 8 C9.2575 8.20625 8.515 8.4125 7.75 8.625 C5 9 5 9 2.75 8.5 C1 7 1 7 0.25 3.375 C0.1675 2.26125 0.085 1.1475 0 0 Z M1 8 C3 9 3 9 3 9 Z " fill="#3C8AB9" transform="translate(363,246)"/>
<path d="M0 0 C0.33 0 0.66 0 1 0 C1 2.64 1 5.28 1 8 C2.65 7.67 4.3 7.34 6 7 C6 6.34 6 5.68 6 5 C9.3 5 12.6 5 16 5 C16 6.32 16 7.64 16 9 C10.72 9 5.44 9 0 9 C0 6.03 0 3.06 0 0 Z " fill="#AE1B6F" transform="translate(384,329)"/>
<path d="M0 0 C2.64 0 5.28 0 8 0 C8.33 2.31 8.66 4.62 9 7 C6.69 7 4.38 7 2 7 C0.5393715 4.35261084 0 3.10551666 0 0 Z " fill="#B21670" transform="translate(327,314)"/>
<path d="M0 0 C2.5 1.625 2.5 1.625 5 4 C5.25 6.9375 5.25 6.9375 5 10 C5.291224 11.67453799 5.61070799 13.34550895 6 15 C6.66 15 7.32 15 8 15 C7.67 15.99 7.34 16.98 7 18 C3.78419249 15.36114619 2.70559724 12.26914567 1.25 8.4375 C0.80140625 7.28121094 0.3528125 6.12492188 -0.109375 4.93359375 C-1 2 -1 2 0 0 Z " fill="#2E80B3" transform="translate(313,236)"/>
<path d="M0 0 C1.06992187 0.00644531 2.13984375 0.01289063 3.2421875 0.01953125 C4.35335938 0.03628906 5.46453125 0.05304688 6.609375 0.0703125 C7.73601562 0.07933594 8.86265625 0.08835938 10.0234375 0.09765625 C12.80229865 0.12120592 15.5807289 0.1540957 18.359375 0.1953125 C18.359375 0.5253125 18.359375 0.8553125 18.359375 1.1953125 C17.09222656 1.22109375 15.82507813 1.246875 14.51953125 1.2734375 C1.92107608 1.58236577 1.92107608 1.58236577 -9.640625 6.1953125 C-10.630625 6.5253125 -11.620625 6.8553125 -12.640625 7.1953125 C-12.970625 6.5353125 -13.300625 5.8753125 -13.640625 5.1953125 C-12.650625 5.1953125 -11.660625 5.1953125 -10.640625 5.1953125 C-10.310625 4.2053125 -9.980625 3.2153125 -9.640625 2.1953125 C-6.47905712 0.02229883 -3.76676002 -0.04007192 0 0 Z " fill="#61A5C6" transform="translate(382.640625,155.8046875)"/>
<path d="M0 0 C0.66 0 1.32 0 2 0 C5.93659703 8.23938913 7.18195757 14.90212159 7 24 C6.67 24 6.34 24 6 24 C6 21.69 6 19.38 6 17 C5.34 17 4.68 17 4 17 C3.81824219 16.11248047 3.81824219 16.11248047 3.6328125 15.20703125 C2.72744944 10.93789621 1.66507747 7.04375957 0 3 C0 2.01 0 1.02 0 0 Z " fill="#538BD0" transform="translate(291,145)"/>
<path d="M0 0 C5.39449293 -0.27429625 8.51925805 -0.36055646 13 3 C13.33 2.01 13.66 1.02 14 0 C14.66 0 15.32 0 16 0 C16.38218767 1.65614657 16.71395102 3.32457024 17 5 C16 6 16 6 12.4375 6.0625 C11.303125 6.041875 10.16875 6.02125 9 6 C8.34 4.35 7.68 2.7 7 1 C4.69 1 2.38 1 0 1 C0 0.67 0 0.34 0 0 Z " fill="#B85B91" transform="translate(357,334)"/>
<path d="M0 0 C0.66 0 1.32 0 2 0 C2.33 1.98 2.66 3.96 3 6 C3.33 4.02 3.66 2.04 4 0 C6 2 6 2 6.1953125 3.9453125 C6.13020833 5.96354167 6.06510417 7.98177083 6 10 C4.02 10 2.04 10 0 10 C0 6.7 0 3.4 0 0 Z " fill="#A01563" transform="translate(335,329)"/>
<path d="M0 0 C1.65 0 3.3 0 5 0 C5.66 2.31 6.32 4.62 7 7 C4.36 7 1.72 7 -1 7 C-0.67 4.69 -0.34 2.38 0 0 Z " fill="#BC0C70" transform="translate(359,315)"/>
<path d="M0 0 C6.6 0 13.2 0 20 0 C20 1.65 20 3.3 20 5 C17.36 5 14.72 5 12 5 C12.66 4.01 13.32 3.02 14 2 C7.07 1.505 7.07 1.505 0 1 C0 0.67 0 0.34 0 0 Z " fill="#9D1C66" transform="translate(400,314)"/>
<path d="M0 0 C0.33 0.99 0.66 1.98 1 3 C4.3 3 7.6 3 11 3 C11.04254356 4.99954746 11.04080783 7.00041636 11 9 C10 10 10 10 8.15234375 10.09765625 C6.1015625 10.06510417 4.05078125 10.03255208 2 10 C2 9.34 2 8.68 2 8 C4.31 8 6.62 8 9 8 C9 7.01 9 6.02 9 5 C6.03 4.67 3.06 4.34 0 4 C0 2.68 0 1.36 0 0 Z " fill="#CE8DB6" transform="translate(289,319)"/>
<path d="M0 0 C0.33 0 0.66 0 1 0 C1.33794471 3.02038089 1.67048433 6.04119756 2 9.0625 C2.09539062 9.91005859 2.19078125 10.75761719 2.2890625 11.63085938 C2.81056158 16.45472589 3.10532727 21.14836264 3 26 C2.67 26 2.34 26 2 26 C1.49133331 23.64741656 0.9929375 21.29338596 0.5 18.9375 C0.35691406 18.28072266 0.21382813 17.62394531 0.06640625 16.94726562 C-1.10692511 11.27616405 -1.80016971 5.62553034 0 0 Z " fill="#418AB8" transform="translate(309,210)"/>
<path d="M0 0 C0.33 0 0.66 0 1 0 C1 5.94 1 11.88 1 18 C1.99 18 2.98 18 4 18 C4.33 15.03 4.66 12.06 5 9 C5.66 9.33 6.32 9.66 7 10 C6.67 13.3 6.34 16.6 6 20 C4.02 19.67 2.04 19.34 0 19 C0 12.73 0 6.46 0 0 Z " fill="#9D125F" transform="translate(260,319)"/>
<path d="M0 0 C1.125 5.75 1.125 5.75 0 8 C-3.3 7.67 -6.6 7.34 -10 7 C-7.1709277 4.1709277 -6.61855575 3.62388892 -3 3 C-3 2.34 -3 1.68 -3 1 C-1 0 -1 0 0 0 Z " fill="#2A83B7" transform="translate(423,245)"/>
<path d="M0 0 C0.51046875 0.23589844 1.0209375 0.47179687 1.546875 0.71484375 C-0.103125 1.37484375 -1.753125 2.03484375 -3.453125 2.71484375 C-3.453125 3.37484375 -3.453125 4.03484375 -3.453125 4.71484375 C-4.8649033 5.24878554 -6.28282744 5.76649479 -7.703125 6.27734375 C-8.49203125 6.56738281 -9.2809375 6.85742188 -10.09375 7.15625 C-12.64415952 7.76007212 -14.00634729 7.56223695 -16.453125 6.71484375 C-14.21005472 5.51234217 -11.9602459 4.32792755 -9.703125 3.15234375 C-8.75179687 2.63897461 -8.75179687 2.63897461 -7.78125 2.11523438 C-3.00217062 -0.34897843 -3.00217062 -0.34897843 0 0 Z " fill="#4088B9" transform="translate(92.453125,130.28515625)"/>
<path d="M0 0 C1.70884005 1.62339805 3.37446717 3.29319053 5 5 C5 5.66 5 6.32 5 7 C2.68143083 8.54571278 0.49361571 9.79618552 -2 11 C-3.5 9.625 -3.5 9.625 -5 8 C-5 7.34 -5 6.68 -5 6 C-3.35 5.67 -1.7 5.34 0 5 C0 3.35 0 1.7 0 0 Z " fill="#BE3B86" transform="translate(335,315)"/>
<path d="M0 0 C0 1.32 0 2.64 0 4 C1.98 4 3.96 4 6 4 C6.33 5.65 6.66 7.3 7 9 C1.66666667 6.33333333 -3.66666667 3.66666667 -9 1 C-6.04335481 -0.4783226 -3.25770263 -0.06032783 0 0 Z " fill="#4C93BB" transform="translate(413,156)"/>
<path d="M0 0 C0.66 0.66 1.32 1.32 2 2 C-0.66666667 3.33333333 -3.33333333 4.66666667 -6 6 C-6 5.34 -6 4.68 -6 4 C-6.99 4.33 -7.98 4.66 -9 5 C-9.33 3.68 -9.66 2.36 -10 1 C-6.47940432 -0.17353189 -3.693507 -0.20146402 0 0 Z " fill="#1A7AB3" transform="translate(370,129)"/>
<path d="M0 0 C4.455 0.99 4.455 0.99 9 2 C9.33 3.65 9.66 5.3 10 7 C8.5410574 6.52269162 7.08286504 6.04308958 5.625 5.5625 C4.81289062 5.29566406 4.00078125 5.02882813 3.1640625 4.75390625 C1 4 1 4 -1 3 C-0.67 2.01 -0.34 1.02 0 0 Z " fill="#2A7FB1" transform="translate(66,273)"/>
<path d="M0 0 C0.33 0.99 0.66 1.98 1 3 C-2.63 3 -6.26 3 -10 3 C-10 4.32 -10 5.64 -10 7 C-8.35 7 -6.7 7 -5 7 C-5 7.66 -5 8.32 -5 9 C-7.31 9.33 -9.62 9.66 -12 10 C-12.04241723 7.66705225 -12.04092937 5.33297433 -12 3 C-11 2 -11 2 -8.49609375 1.90234375 C-6.98208984 1.91974609 -6.98208984 1.91974609 -5.4375 1.9375 C-4.42558594 1.94652344 -3.41367187 1.95554687 -2.37109375 1.96484375 C-1.19740234 1.98224609 -1.19740234 1.98224609 0 2 C0 1.34 0 0.68 0 0 Z " fill="#991A64" transform="translate(299,316)"/>
<path d="M0 0 C3.22269618 3.79817765 5.74520378 7.57391854 8 12 C7.67 12.66 7.34 13.32 7 14 C4 13 4 13 2.8125 11.125 C2 9 2 9 2 6 C1.01 5.67 0.02 5.34 -1 5 C-0.67 3.35 -0.34 1.7 0 0 Z " fill="#BB4689" transform="translate(311,313)"/>
<path d="M0 0 C1.35008317 2.70016634 0.94892419 4.56977836 0.6875 7.5625 C0.60886719 8.55378906 0.53023438 9.54507813 0.44921875 10.56640625 C0.30097656 11.36949219 0.15273437 12.17257813 0 13 C-0.99 13.495 -0.99 13.495 -2 14 C-2.268125 12.88625 -2.53625 11.7725 -2.8125 10.625 C-3.65809019 6.78159049 -3.65809019 6.78159049 -7 5 C-5.125 3.9375 -5.125 3.9375 -3 3 C-2.34 3.33 -1.68 3.66 -1 4 C-0.67 2.68 -0.34 1.36 0 0 Z " fill="#0A6FAB" transform="translate(95,160)"/>
<path d="M0 0 C0.99 0 1.98 0 3 0 C3 1.32 3 2.64 3 4 C1.3203125 5.51953125 1.3203125 5.51953125 -0.875 6.8125 C-1.95394531 7.47185547 -1.95394531 7.47185547 -3.0546875 8.14453125 C-3.69664062 8.42683594 -4.33859375 8.70914063 -5 9 C-5.66 8.67 -6.32 8.34 -7 8 C-7 7.34 -7 6.68 -7 6 C-5.68 6 -4.36 6 -3 6 C-3 4.68 -3 3.36 -3 2 C-2.34 2 -1.68 2 -1 2 C-0.67 1.34 -0.34 0.68 0 0 Z " fill="#2E83B5" transform="translate(284,189)"/>
<path d="M0 0 C0.33 0.99 0.66 1.98 1 3 C0.01 3.33 -0.98 3.66 -2 4 C-2.33 5.65 -2.66 7.3 -3 9 C-3.99 9 -4.98 9 -6 9 C-6 9.66 -6 10.32 -6 11 C-7.5 12.625 -7.5 12.625 -9 14 C-9.66 13.67 -10.32 13.34 -11 13 C-9.73147606 11.39400651 -8.460089 9.79027425 -7.1875 8.1875 C-6.47980469 7.29417969 -5.77210938 6.40085938 -5.04296875 5.48046875 C-3.43588623 3.52923089 -1.82959577 1.73725024 0 0 Z " fill="#5F9CC3" transform="translate(332,146)"/>
<path d="M0 0 C-2 2 -2 2 -5.4765625 2.1953125 C-6.85950968 2.18201493 -8.24238654 2.15816232 -9.625 2.125 C-10.33140625 2.11597656 -11.0378125 2.10695313 -11.765625 2.09765625 C-13.51056098 2.07407603 -15.25532295 2.03820461 -17 2 C-17 1.34 -17 0.68 -17 0 C-11.23073111 -1.40333568 -5.81856895 -0.67296616 0 0 Z " fill="#176FA6" transform="translate(400,257)"/>
<path d="M0 0 C0.99 0.33 1.98 0.66 3 1 C3.33 2.65 3.66 4.3 4 6 C1.69 6 -0.62 6 -3 6 C-3 4.68 -3 3.36 -3 2 C-2.01 1.34 -1.02 0.68 0 0 Z " fill="#A4296E" transform="translate(277,333)"/>
<path d="M0 0 C0.99 0.66 1.98 1.32 3 2 C3.36328125 4.09375 3.36328125 4.09375 3.3125 6.5 C3.30863281 7.2940625 3.30476563 8.088125 3.30078125 8.90625 C3 11 3 11 1 13 C-2.2 6.84615385 -2.2 6.84615385 -1.1875 2.5625 C-0.795625 1.716875 -0.40375 0.87125 0 0 Z " fill="#B92679" transform="translate(312,319)"/>
<path d="M0 0 C1.60080151 4.00200378 0.29279692 7.04556236 -1 11 C-1.66 11 -2.32 11 -3 11 C-3 11.66 -3 12.32 -3 13 C-3.99 13.33 -4.98 13.66 -6 14 C-4.45941767 8.98491285 -2.97068161 4.3852919 0 0 Z " fill="#3A84B4" transform="translate(320,161)"/>
<path d="M0 0 C0.99 0 1.98 0 3 0 C3.66 2.97 4.32 5.94 5 9 C3.35 8.67 1.7 8.34 0 8 C0 5.36 0 2.72 0 0 Z " fill="#C00973" transform="translate(423,328)"/>
<path d="M0 0 C2.64 0 5.28 0 8 0 C7.45773019 3.79588866 5.79872437 5.47211993 3 8 C2.814375 6.576875 2.814375 6.576875 2.625 5.125 C2.28312823 1.91332809 2.28312823 1.91332809 0 0 Z " fill="#AC4E85" transform="translate(273,313)"/>
<path d="M0 0 C0.33 0 0.66 0 1 0 C1 4.62 1 9.24 1 14 C-0.32 13.67 -1.64 13.34 -3 13 C-2.67 12.67 -2.34 12.34 -2 12 C-1.79162581 10.17093765 -1.63250341 8.33611866 -1.5 6.5 C-1.11111111 1.11111111 -1.11111111 1.11111111 0 0 Z " fill="#942161" transform="translate(309,325)"/>
<path d="M0 0 C0.66 0.66 1.32 1.32 2 2 C1.69728039 3.34061543 1.36162029 4.67405895 1 6 C1.33 6.99 1.66 7.98 2 9 C-0.64 9 -3.28 9 -6 9 C-5.01 8.34 -4.02 7.68 -3 7 C-3.33 6.01 -3.66 5.02 -4 4 C-2.68 4 -1.36 4 0 4 C0 2.68 0 1.36 0 0 Z " fill="#9F0E60" transform="translate(362,325)"/>
<path d="M0 0 C2.475 0.495 2.475 0.495 5 1 C4.67 3.64 4.34 6.28 4 9 C3.34 9 2.68 9 2 9 C2 8.01 2 7.02 2 6 C1.34 6 0.68 6 0 6 C0 4.02 0 2.04 0 0 Z " fill="#B10D6E" transform="translate(314,326)"/>
<path d="M0 0 C0.66 1.32 1.32 2.64 2 4 C3.32 4 4.64 4 6 4 C5.3125 6.4375 5.3125 6.4375 4 9 C1.375 9.8125 1.375 9.8125 -1 10 C-0.67 6.7 -0.34 3.4 0 0 Z " fill="#C45194" transform="translate(266,315)"/>
<path d="M0 0 C3.12290635 0.48578543 5.99580359 0.9986012 9 2 C10.35439668 4.70879335 10.06501451 7.00933268 10 10 C9.46375 9.2575 8.9275 8.515 8.375 7.75 C5.85015128 4.82649095 3.24183838 3.06298806 0 1 C0 0.67 0 0.34 0 0 Z " fill="#3F85B2" transform="translate(252,217)"/>
<path d="M0 0 C11.70615034 -0.55353075 11.70615034 -0.55353075 16 3 C15.67 3.99 15.34 4.98 15 6 C14.071875 5.319375 14.071875 5.319375 13.125 4.625 C8.9069413 2.43160948 4.66024414 1.76916651 0 1 C0 0.67 0 0.34 0 0 Z " fill="#458AB4" transform="translate(122,155)"/>
<path d="M0 0 C0.99 0.66 1.98 1.32 3 2 C2.55005243 3.79379098 2.08975857 5.58498928 1.625 7.375 C1.36976563 8.37273437 1.11453125 9.37046875 0.8515625 10.3984375 C0 13 0 13 -2 15 C-1.47462276 9.9697924 -0.89405214 4.98114761 0 0 Z " fill="#528EB2" transform="translate(161,136)"/>
<path d="M0 0 C6.93 0.495 6.93 0.495 14 1 C13.67 1.66 13.34 2.32 13 3 C8.71 3 4.42 3 0 3 C0 2.01 0 1.02 0 0 Z " fill="#B96CA3" transform="translate(421,337)"/>
<path d="M0 0 C1.32 0.33 2.64 0.66 4 1 C1.68118495 3.67901932 -0.31814468 4.66204403 -3.6875 5.6875 C-4.49574219 5.93886719 -5.30398438 6.19023437 -6.13671875 6.44921875 C-7.05904297 6.72185547 -7.05904297 6.72185547 -8 7 C-8.33 6.01 -8.66 5.02 -9 4 C-4.545 3.505 -4.545 3.505 0 3 C0 2.01 0 1.02 0 0 Z " fill="#4187B4" transform="translate(436,271)"/>
<path d="M0 0 C1.65 0 3.3 0 5 0 C4.67 1.98 4.34 3.96 4 6 C2.35 5.67 0.7 5.34 -1 5 C-0.67 3.35 -0.34 1.7 0 0 Z " fill="#B91C74" transform="translate(341,316)"/>
<path d="M0 0 C-6.16645379 2.52653315 -10.43592388 3.31281522 -17 2 C-17 1.67 -17 1.34 -17 1 C-14.91835982 0.63601378 -12.83459438 0.28416713 -10.75 -0.0625 C-9.00976562 -0.35833984 -9.00976562 -0.35833984 -7.234375 -0.66015625 C-4.37477376 -0.9606216 -2.66674071 -0.9439206 0 0 Z " fill="#458AB4" transform="translate(140,280)"/>
<path d="M0 0 C0.66 0 1.32 0 2 0 C2.33 1.32 2.66 2.64 3 4 C3.928125 4.0928125 3.928125 4.0928125 4.875 4.1875 C7 5 7 5 8.25 7.5625 C8.4975 8.366875 8.745 9.17125 9 10 C3.98886765 8.5682479 2.05530451 6.01554307 -1 2 C-0.67 1.34 -0.34 0.68 0 0 Z " fill="#4E97C0" transform="translate(66,203)"/>
<path d="M0 0 C2.31 0.33 4.62 0.66 7 1 C6.21625 1.721875 5.4325 2.44375 4.625 3.1875 C2.15587562 5.83299041 1.06739722 7.60373611 0 11 C-0.33 11 -0.66 11 -1 11 C-1.08912219 7.16774573 -0.87867729 3.73437848 0 0 Z " fill="#5195BC" transform="translate(96,157)"/>
<path d="M0 0 C0.66 0.33 1.32 0.66 2 1 C2 1.66 2 2.32 2 3 C3.32 3 4.64 3 6 3 C6 3.99 6 4.98 6 6 C6.66 6 7.32 6 8 6 C8 6.66 8 7.32 8 8 C4.06326356 6.68775452 1.77280706 5.08089673 -1 2 C-0.67 1.34 -0.34 0.68 0 0 Z " fill="#4693BE" transform="translate(335,268)"/>
<path d="M0 0 C1.485 0.99 1.485 0.99 3 2 C2.88590407 3.45922693 2.75834456 4.91740598 2.625 6.375 C2.55539062 7.18710937 2.48578125 7.99921875 2.4140625 8.8359375 C2 11 2 11 0 13 C0 8.71 0 4.42 0 0 Z " fill="#A33671" transform="translate(442,321)"/>
<path d="M0 0 C0.66 0.33 1.32 0.66 2 1 C2 1.99 2 2.98 2 4 C-0.35438733 5.42944945 -1.48032433 6.08661261 -4.25 5.625 C-4.8275 5.41875 -5.405 5.2125 -6 5 C-4.02 3.35 -2.04 1.7 0 0 Z " fill="#3581AC" transform="translate(437,232)"/>
<path d="M0 0 C0.33 0 0.66 0 1 0 C1.33 4.62 1.66 9.24 2 14 C1.01 14.33 0.02 14.66 -1 15 C-0.67 10.05 -0.34 5.1 0 0 Z " fill="#5292BD" transform="translate(309,189)"/>
<path d="M0 0 C0.33 0 0.66 0 1 0 C1.22036864 3.85645121 0.60355101 6.49223216 -1 10 C-2.98 10 -4.96 10 -7 10 C-6.57847656 9.52949219 -6.15695313 9.05898437 -5.72265625 8.57421875 C-5.17480469 7.95160156 -4.62695312 7.32898438 -4.0625 6.6875 C-3.51722656 6.07261719 -2.97195313 5.45773438 -2.41015625 4.82421875 C-0.79918441 2.94758042 -0.79918441 2.94758042 0 0 Z " fill="#3483B0" transform="translate(261,241)"/>
<path d="M0 0 C1.32 0.33 2.64 0.66 4 1 C4.33 3.64 4.66 6.28 5 9 C4.731875 8.360625 4.46375 7.72125 4.1875 7.0625 C3.11332248 4.66868314 3.11332248 4.66868314 0 4 C0 2.68 0 1.36 0 0 Z " fill="#2589C6" transform="translate(298,243)"/>
<path d="M0 0 C2.9719385 1.12451727 5.33440687 2.22293791 8 4 C7.67 5.32 7.34 6.64 7 8 C4.46645681 6.16536528 2.05870512 4.36751088 0 2 C0 1.34 0 0.68 0 0 Z " fill="#4089B1" transform="translate(153,197)"/>
<path d="M0 0 C0.66 0 1.32 0 2 0 C2.66 1.65 3.32 3.3 4 5 C3.01 5 2.02 5 1 5 C0.67 6.65 0.34 8.3 0 10 C-0.33 10 -0.66 10 -1 10 C-1.02689216 8.52093108 -1.04634621 7.04172517 -1.0625 5.5625 C-1.07410156 4.73878906 -1.08570313 3.91507812 -1.09765625 3.06640625 C-1 1 -1 1 0 0 Z " fill="#CC5CA3" transform="translate(267,328)"/>
<path d="M0 0 C1.65 0 3.3 0 5 0 C1.8243229 2.72200894 -0.96113632 4.79925674 -5 6 C-5.66 5.67 -6.32 5.34 -7 5 C-6.67 4.34 -6.34 3.68 -6 3 C-4.02 3.495 -4.02 3.495 -2 4 C-2 3.34 -2 2.68 -2 2 C-1.34 2 -0.68 2 0 2 C0 1.34 0 0.68 0 0 Z " fill="#5096BE" transform="translate(284,270)"/>
<path d="M0 0 C0 0.99 0 1.98 0 3 C-2.1875 4.75 -2.1875 4.75 -5 6 C-7.8125 5.6875 -7.8125 5.6875 -10 5 C-9.4225 4.731875 -8.845 4.46375 -8.25 4.1875 C-5.94252104 3.04946754 -5.94252104 3.04946754 -3.875 1.375 C-2 0 -2 0 0 0 Z " fill="#AE4181" transform="translate(442,333)"/>
<path d="M0 0 C1.32 0.33 2.64 0.66 4 1 C3.34 5.29 2.68 9.58 2 14 C1.67 14 1.34 14 1 14 C0.67 9.38 0.34 4.76 0 0 Z " fill="#CA5C98" transform="translate(333,325)"/>
<path d="M0 0 C1.32 0 2.64 0 4 0 C5 3 5 3 4.0625 5.1875 C3.5365625 6.0846875 3.5365625 6.0846875 3 7 C0 3.375 0 3.375 0 0 Z " fill="#AA3475" transform="translate(327,314)"/>
<path d="M0 0 C0.33 0.66 0.66 1.32 1 2 C2.32 1.67 3.64 1.34 5 1 C5.33 3.31 5.66 5.62 6 8 C1.3125 4.38671875 1.3125 4.38671875 0 3 C0 2.01 0 1.02 0 0 Z " fill="#4D93C1" transform="translate(52,262)"/>
<path d="M0 0 C2.9719385 1.12451727 5.33440687 2.22293791 8 4 C6.375 4.6875 6.375 4.6875 4 5 C0.75 3.5625 0.75 3.5625 -2 2 C-1.34 1.34 -0.68 0.68 0 0 Z " fill="#4890BB" transform="translate(77,212)"/>
<path d="M0 0 C4.3177458 0.50797009 8.03302114 1.19682779 12 3 C12 3.33 12 3.66 12 4 C9.36 4 6.72 4 4 4 C4 3.34 4 2.68 4 2 C2.68 2 1.36 2 0 2 C0 1.34 0 0.68 0 0 Z " fill="#428CB8" transform="translate(132,189)"/>
<path d="M0 0 C3.94580104 0.43842234 6.38616645 1.19308322 10 3 C6.7 3.33 3.4 3.66 0 4 C-0.33 3.01 -0.66 2.02 -1 1 C-0.67 0.67 -0.34 0.34 0 0 Z " fill="#4086AF" transform="translate(174,128)"/>
<path d="M0 0 C3.875 1.75 3.875 1.75 5 4 C4.01 4.495 4.01 4.495 3 5 C3.66 5.66 4.32 6.32 5 7 C4.01 7.495 4.01 7.495 3 8 C2.34 7.67 1.68 7.34 1 7 C0.59270772 4.67843403 0.25561323 2.3431213 0 0 Z M1 8 C3 9 3 9 3 9 Z " fill="#4494C6" transform="translate(363,246)"/>
<path d="M0 0 C0.66 0 1.32 0 2 0 C2.99 2.97 3.98 5.94 5 9 C4.01 9.495 4.01 9.495 3 10 C0 3.375 0 3.375 0 0 Z " fill="#4A89B9" transform="translate(291,145)"/>
<path d="M0 0 C-0.33 0.99 -0.66 1.98 -1 3 C-2.32 3 -3.64 3 -5 3 C-5.33 3.99 -5.66 4.98 -6 6 C-6.99 5.34 -7.98 4.68 -9 4 C-3.375 0 -3.375 0 0 0 Z " fill="#3081B0" transform="translate(346,138)"/>
<path d="M0 0 C0.33 0 0.66 0 1 0 C1 2.31 1 4.62 1 7 C2.65 7.33 4.3 7.66 6 8 C6 8.33 6 8.66 6 9 C3.69 9 1.38 9 -1 9 C-2.25541557 5.23375329 -1.37061958 3.62811066 0 0 Z " fill="#CB86B4" transform="translate(350,331)"/>
<path d="M0 0 C2.64 0.33 5.28 0.66 8 1 C7.67 1.66 7.34 2.32 7 3 C4.36 3 1.72 3 -1 3 C-0.67 2.01 -0.34 1.02 0 0 Z " fill="#207CB7" transform="translate(65,301)"/>
<path d="M0 0 C0 3.10551666 -0.5393715 4.35261084 -2 7 C-3.32 6.67 -4.64 6.34 -6 6 C-5.67 5.34 -5.34 4.68 -5 4 C-4.34 4 -3.68 4 -3 4 C-2.67 3.01 -2.34 2.02 -2 1 C-1.34 0.67 -0.68 0.34 0 0 Z " fill="#518FB8" transform="translate(72,140)"/>
<path d="M0 0 C1.625 2 1.625 2 3 4 C1.02 4.33 -0.96 4.66 -3 5 C-3.33 3.68 -3.66 2.36 -4 1 C-2 0 -2 0 0 0 Z " fill="#C22684" transform="translate(435,332)"/>
<path d="M0 0 C2 1 2 1 2.6328125 2.84765625 C2.79523438 3.57855469 2.95765625 4.30945313 3.125 5.0625 C3.29257812 5.79597656 3.46015625 6.52945312 3.6328125 7.28515625 C3.75398438 7.85105469 3.87515625 8.41695313 4 9 C3.01 9.495 3.01 9.495 2 10 C0.68373308 6.38026598 0 3.90432869 0 0 Z " fill="#AE3C80" transform="translate(368,325)"/>
<path d="M0 0 C-1.65 1.32 -3.3 2.64 -5 4 C-5.66 3.67 -6.32 3.34 -7 3 C-7 2.01 -7 1.02 -7 0 C-3.98968256 -0.93423645 -3.13349732 -1.04449911 0 0 Z " fill="#3C87BA" transform="translate(159,268)"/>
<path d="M0 0 C0.33 0.99 0.66 1.98 1 3 C0.67 3.66 0.34 4.32 0 5 C0.99 5 1.98 5 3 5 C2.67 6.32 2.34 7.64 2 9 C1.67 8.34 1.34 7.68 1 7 C0.01 7 -0.98 7 -2 7 C-1.125 2.25 -1.125 2.25 0 0 Z " fill="#277CBA" transform="translate(55,257)"/>
<path d="M0 0 C1.98 0 3.96 0 6 0 C5.67 0.99 5.34 1.98 5 3 C5.66 3 6.32 3 7 3 C7 3.99 7 4.98 7 6 C6.01 5.67 5.02 5.34 4 5 C4 3.68 4 2.36 4 1 C3.67 1.66 3.34 2.32 3 3 C2.34 3 1.68 3 1 3 C0.67 2.01 0.34 1.02 0 0 Z " fill="#0C71B1" transform="translate(64,202)"/>
<path d="M0 0 C0.33 0 0.66 0 1 0 C1.33 3.96 1.66 7.92 2 12 C1.01 12 0.02 12 -1 12 C-0.67 8.04 -0.34 4.08 0 0 Z " fill="#3784AC" transform="translate(255,168)"/>
<path d="M0 0 C2.31 0.33 4.62 0.66 7 1 C7 1.99 7 2.98 7 4 C4.625 3.6875 4.625 3.6875 2 3 C1.34 2.01 0.68 1.02 0 0 Z " fill="#5A99B7" transform="translate(431,174)"/>
<path d="M0 0 C1 3 1 3 -0.25 5.625 C-2 8 -2 8 -5 9 C-3.7508258 5.54074837 -2.32472205 2.85306797 0 0 Z " fill="#548FB6" transform="translate(65,147)"/>
<path d="M0 0 C2.97 0 5.94 0 9 0 C7.515 1.485 7.515 1.485 6 3 C2.8125 2.6875 2.8125 2.6875 0 2 C0 1.34 0 0.68 0 0 Z " fill="#9E135D" transform="translate(390,334)"/>
<path d="M0 0 C2.64 0 5.28 0 8 0 C8 0.99 8 1.98 8 3 C6.35 3 4.7 3 3 3 C3 2.34 3 1.68 3 1 C2.01 0.67 1.02 0.34 0 0 Z " fill="#B11068" transform="translate(291,335)"/>
<path d="M0 0 C0.33 0.99 0.66 1.98 1 3 C-0.25 4.5625 -0.25 4.5625 -2 6 C-4.1875 5.6875 -4.1875 5.6875 -6 5 C-6 4.34 -6 3.68 -6 3 C-4.35 3 -2.7 3 -1 3 C-0.67 2.01 -0.34 1.02 0 0 Z " fill="#3381B7" transform="translate(293,263)"/>
<path d="M0 0 C0.66 0 1.32 0 2 0 C3.03039555 4.53374042 3.17766075 5.64467851 1 10 C0.67 6.7 0.34 3.4 0 0 Z " fill="#3A85B3" transform="translate(300,218)"/>
<path d="M0 0 C1.43655854 -0.08131463 2.8744483 -0.13933559 4.3125 -0.1875 C5.51326172 -0.23970703 5.51326172 -0.23970703 6.73828125 -0.29296875 C9.47851584 0.06198392 10.29171079 0.89366282 12 3 C8.875 2.47916667 5.75 1.95833333 2.625 1.4375 C1.75875 1.293125 0.8925 1.14875 0 1 C0 0.67 0 0.34 0 0 Z " fill="#4D8ABC" transform="translate(107,223)"/>
<path d="M0 0 C2.97 0.33 5.94 0.66 9 1 C9 1.33 9 1.66 9 2 C4.545 2.495 4.545 2.495 0 3 C0 2.01 0 1.02 0 0 Z " fill="#2179B2" transform="translate(140,193)"/>
<path d="M0 0 C6.15234375 0.5859375 6.15234375 0.5859375 8 1 C8.33 1.66 8.66 2.32 9 3 C5.625 3.1875 5.625 3.1875 2 3 C1.34 2.01 0.68 1.02 0 0 Z " fill="#2979AC" transform="translate(101,181)"/>
<path d="M0 0 C1.65 0.33 3.3 0.66 5 1 C4.01 1.33 3.02 1.66 2 2 C2 2.99 2 3.98 2 5 C0.68 5 -0.64 5 -2 5 C-1.34 3.35 -0.68 1.7 0 0 Z " fill="#2885C4" transform="translate(150,131)"/>
<path d="M0 0 C4.455 0.99 4.455 0.99 9 2 C8.01 2.66 7.02 3.32 6 4 C2.3125 3.125 2.3125 3.125 -1 2 C-0.67 1.34 -0.34 0.68 0 0 Z " fill="#4C90BD" transform="translate(416,129)"/>
<path d="M0 0 C2 4 2 4 1.75 6.1875 C1 8 1 8 -1 9 C-0.67 6.03 -0.34 3.06 0 0 Z " fill="#BB4A8E" transform="translate(352,325)"/>
<path d="M0 0 C0 1.32 0 2.64 0 4 C-0.66 4 -1.32 4 -2 4 C-2 3.34 -2 2.68 -2 2 C-2.61875 2.20625 -3.2375 2.4125 -3.875 2.625 C-4.57625 2.74875 -5.2775 2.8725 -6 3 C-6.66 2.34 -7.32 1.68 -8 1 C-5.10765685 0.17361624 -3.11257569 0 0 0 Z " fill="#C62883" transform="translate(440,318)"/>
<path d="M0 0 C0 0.33 0 0.66 0 1 C-2.64 1 -5.28 1 -8 1 C-8 0.34 -8 -0.32 -8 -1 C-4.37673261 -2.2077558 -3.35853631 -1.54311128 0 0 Z " fill="#086FAA" transform="translate(96,282)"/>
<path d="M0 0 C0.99 0.33 1.98 0.66 3 1 C3.6875 3.0625 3.6875 3.0625 4 5 C3.01 5.33 2.02 5.66 1 6 C0.67 4.02 0.34 2.04 0 0 Z " fill="#488DB8" transform="translate(356,237)"/>
<path d="M0 0 C1.9375 0.625 1.9375 0.625 4 2 C4.75 5.125 4.75 5.125 5 8 C2.20127563 5.47211993 0.54226981 3.79588866 0 0 Z " fill="#4B95BC" transform="translate(60,197)"/>
<path d="M0 0 C0.66 0 1.32 0 2 0 C1.67 3.63 1.34 7.26 1 11 C0.67 11 0.34 11 0 11 C-0.19406478 9.35492782 -0.38007935 7.70890406 -0.5625 6.0625 C-0.66691406 5.14597656 -0.77132813 4.22945312 -0.87890625 3.28515625 C-0.91886719 2.53105469 -0.95882813 1.77695313 -1 1 C-0.67 0.67 -0.34 0.34 0 0 Z " fill="#5296BC" transform="translate(352,188)"/>
<path d="M0 0 C6.75 0.75 6.75 0.75 9 3 C6.03 2.67 3.06 2.34 0 2 C0 1.34 0 0.68 0 0 Z " fill="#5E9AC1" transform="translate(269,131)"/>
</svg>
