<?xml version="1.0" standalone="no"?>
<!DOCTYPE svg PUBLIC "-//W3C//DTD SVG 20010904//EN"
 "http://www.w3.org/TR/2001/REC-SVG-20010904/DTD/svg10.dtd">
<svg version="1.0" xmlns="http://www.w3.org/2000/svg"
 width="190.000000pt" height="148.000000pt" viewBox="0 0 190.000000 148.000000"
 preserveAspectRatio="xMidYMid meet">

<g transform="translate(0.000000,148.000000) scale(0.100000,-0.100000)"
fill="#000000" stroke="none">
<path d="M313 1039 c-24 -12 -43 -24 -43 -28 0 -21 57 -84 92 -102 53 -27 141
-27 201 0 70 32 74 43 32 84 -53 52 -93 67 -172 67 -49 0 -80 -6 -110 -21z"/>
<path d="M217 973 c-3 -5 -10 -26 -16 -47 -22 -83 18 -164 104 -209 62 -32
177 -28 251 8 61 30 134 95 134 120 0 22 -7 19 -55 -21 -51 -41 -117 -64 -187
-64 -112 0 -203 79 -210 183 -2 35 -11 47 -21 30z"/>
<path d="M843 962 c-44 -23 -65 -56 -66 -100 -1 -61 25 -89 107 -113 89 -26
113 -51 80 -83 -26 -27 -134 -18 -134 11 0 22 -19 11 -38 -20 -16 -28 -16 -29
8 -49 21 -17 36 -19 111 -16 76 3 91 6 113 27 36 34 50 82 36 125 -13 42 -42
62 -115 81 -70 18 -75 21 -75 50 0 46 86 63 114 23 18 -25 18 -25 40 19 15 31
15 32 -6 47 -31 22 -133 20 -175 -2z"/>
<path d="M1084 971 c-2 -2 -4 -89 -4 -193 l0 -189 110 2 c95 1 115 4 143 23
44 30 65 91 46 131 -8 17 -27 36 -42 43 l-28 14 25 23 c34 31 36 93 5 121 -17
16 -41 20 -136 24 -63 3 -117 3 -119 1z m174 -73 c18 -18 14 -56 -7 -68 -11
-5 -33 -10 -50 -10 -30 0 -31 1 -31 45 l0 45 38 0 c21 0 43 -5 50 -12z m28
-163 c11 -16 11 -25 1 -45 -11 -21 -21 -25 -65 -28 l-52 -3 0 51 0 51 51 -3
c39 -2 55 -8 65 -23z"/>
<path d="M1505 960 c-62 -31 -89 -80 -93 -170 -2 -64 1 -81 20 -115 38 -64 78
-85 165 -85 44 0 85 6 101 14 25 13 27 19 24 55 l-4 41 -25 -20 c-62 -49 -144
-33 -174 34 -31 68 -19 137 30 181 31 27 91 26 130 -3 17 -12 33 -22 36 -22 3
0 5 18 5 41 0 36 -3 41 -35 55 -50 20 -132 18 -180 -6z"/>
<path d="M270 912 c0 -5 14 -27 30 -49 58 -78 163 -93 275 -38 72 36 99 59 92
79 -6 15 -11 14 -44 -7 -70 -45 -157 -70 -219 -65 -51 4 -61 9 -96 46 -21 23
-38 38 -38 34z"/>
<path d="M161 814 c-2 -49 52 -144 101 -179 41 -28 49 -30 138 -30 86 0 99 3
141 28 49 29 139 118 139 137 0 7 -26 -11 -58 -40 -131 -117 -309 -115 -407 4
-20 25 -41 61 -45 79 l-8 32 -1 -31z"/>
<path d="M621 666 c-24 -24 -66 -56 -93 -71 -43 -23 -62 -27 -128 -27 -85 0
-116 11 -177 65 -35 30 -36 31 -18 5 44 -62 174 -117 242 -103 10 2 35 7 55
10 44 7 131 72 153 116 26 50 13 52 -34 5z"/>
<path d="M1301 470 c0 -24 2 -31 8 -21 5 7 13 11 17 8 5 -3 9 5 9 18 0 16 -3
20 -12 14 -7 -7 -13 -5 -16 3 -3 7 -6 -3 -6 -22z"/>
<path d="M1360 470 c0 -22 5 -30 18 -30 14 0 15 2 2 10 -13 9 -13 11 0 20 13
9 13 10 0 10 -13 0 -13 1 0 10 13 8 12 10 -2 10 -13 0 -18 -8 -18 -30z"/>
<path d="M1401 473 c1 -21 3 -23 6 -9 5 18 6 18 24 -5 l19 -24 0 35 c0 23 -3
30 -9 21 -6 -9 -11 -10 -15 -2 -13 20 -26 11 -25 -16z"/>
<path d="M1467 485 c6 -11 12 -27 15 -35 3 -9 7 -4 10 13 3 15 3 25 0 22 -3
-2 -12 1 -20 8 -13 10 -14 9 -5 -8z"/>
<path d="M1527 486 c-11 -27 -9 -32 13 -32 24 0 25 6 7 30 -13 18 -14 18 -20
2z"/>
<path d="M1601 473 c-1 -25 3 -33 17 -33 11 0 13 3 6 8 -7 4 -14 18 -17 32 -4
21 -4 20 -6 -7z"/>
<path d="M1648 493 c6 -2 18 -2 25 0 6 3 1 5 -13 5 -14 0 -19 -2 -12 -5z"/>
<path d="M1690 470 c0 -33 19 -40 40 -15 16 20 5 45 -20 45 -16 0 -20 -7 -20
-30z m35 0 c0 -7 -6 -15 -12 -17 -8 -3 -13 4 -13 17 0 13 5 20 13 18 6 -3 12
-11 12 -18z"/>
</g>
</svg>
