<svg xmlns="http://www.w3.org/2000/svg" width="386" height="231" viewBox="0 0 386 231">
  <title>New Brand Logos</title>
  <g>
    <path d="M91.91,122.7c-.82,5.91-3.79,11.36-3.82,17.44,0,2.23,0,4.46,0,6.53,13.13,4.37,40.26,7.16,47.41,4.69-13.73-4.61-27.83-6.23-41.28-12.19,10.8-23,19.12-47.21,47-57.13-10.07-.53-16.65,3.92-22.47,9.79-2.15-.34-1.84-2.87-2.28-3-12.36-1-22.5-9.88-35.28-2.78,2.1-4.82,5.55-6.15,7.52-9.05-19.95,2.33-31.27,0-48.31-10.45,9.33,0,17.4-.19,25.3-1.84C76,62.55,86.22,60,96.56,58.25c9.48-1.64,18.68-.57,26.91,5.21,4.68,3.28,10.19,1.4,15.23,2.33,12.24-9.37,21.62-20.07,20.81-36.87,7.09,2.92,8.78,9.91,13.37,15.23a88.77,88.77,0,0,1,46.44-6.75c15.89,1.92,30.14,8.77,44.33,15.08,2.42-.87,4.53-1.62,6.09-3,0-3.7-.28-7.24.06-10.73.71-7.47,4-11,11.25-12.61a11.68,11.68,0,0,0,4-1.92C311.13,7.45,340.9,17.08,352.35,46c.33.84.72,1.65,1.09,2.5C365.9,41.63,373,27.41,370.9,14c-.31-2-.35-4.07-.52-6.11l-.12.11c5,9,3.61,18-.21,26.82-3.27,7.55-8.87,13.37-15.19,18.54-.9,3.15-.61,6.25-.61,9.15,3.14,1.24,4.68-2.14,7.24-1.49l-.13-.1c-12.16,15.88-13.25,16.41-37.93,18.62,16.86.65,33.8-.78,52.11,1.38L350.06,96l.28.88h17.12c-2.83,10.48-7,19.35-14.56,26.38-10.62,9.83-23.85,13-37.71,14.13a215.36,215.36,0,0,1-44.86-1.3l-20.44-22.21L238,137.28h25.5c-11.29,11.67-22.34,21.37-36.4,27.26,9.08-1.61,16.68-6.48,24.61-10.61l-.09-.14c-2.4,6.76-8.28,10-13.9,13.34-4.66,2.76-9.93,4.15-15.13,5.5-2.38,2.18-2.55,5.86-5.4,7.62l-.46-.39c.37-2.17,2.64-3.54,2.55-6-3.64-1.53-5.53,1.47-8,3,.11-1.46-.09-2.44-2-2.26-6.26.59-12.54,1.05-18.82,1.56-2.33,3.23-4.5,6.58-1.33,10.09,2.81,3.11,6.49,3.16,10.16,1.11a8.74,8.74,0,0,1,2.08-.57c-1,2.5-3.54,3.1-5.55,4.26-5.83,3.37-11.67,6.75-16.51,11.49-5.65,5.54-6,11.6-1.14,17.22a28.35,28.35,0,0,1,12.76-16.2l.3.33c-1.91,2-3.82,4-5.74,6-3.85,4-6.68,8.48-5.64,14.35-19.39,3.58-38.07,3.87-55.5-6.51,11.76,3.6,23.62,5.65,36.18,2.51a11.86,11.86,0,0,0,4.74-8.9c-1.83-3.93-5.1-5.38-9.14-4.6-27.63,5.38-49-5.15-66.73-25.6A199.71,199.71,0,0,1,73.52,159.4c-9.15-2.11-18.22-2.75-27.4-1-1.46.27-2.93.76-4.32-.26v.1c7.91-4.53,15.29-10.21,24.9-11.07-8.47-18.47-32.44-28.53-56.24-23.89,17.19-11.85,41.45-2.4,59.46,23.41H84c.06-8.7-4.39-14.79-10.62-20-6-5-13-8.69-19.62-13,3.76.13,6.7,2.32,9.87,3.85,3.71,1.78,7.26,3.89,10.92,5.79,5.9,3,11.74,3,17.46-.51ZM244.13,70.93c.39,1.67,1.75,2.12,3.16,2.5,9.6,8.56,17.15,19,26.15,28.43a11,11,0,0,0,2.74-5.32c-6.6-24.07-22.45-38.32-44.3-46.66-7.84-3-15.78-6-24.58-3.77,8.51,3.19,17.3,5.33,25.6,8.87A77.31,77.31,0,0,1,255.67,69.2c6.69,6.21,11.94,13.41,14.28,22.45-3.82-3.13-7.06-6.75-10.65-10s-7-6.74-11.63-8.63c-.87-1.28-1.84-2.4-3.64-2-9.81-8.46-34.15-14.66-41.63-10.7l12.71,1.14C225.51,62.4,234.81,66.68,244.13,70.93Zm-9-.12c.16.26.33.51.19.3L235,71c-19.54-9.7-39.43-10.5-60.19-2.89,1.63,2.66,3.61,3.6,5.67,4.65,9.93-5.12,20.5-6.14,31.57-5.59C219.9,67.52,227.24,70.6,235.09,70.81Zm-62-14.44-.1-.11c.81,2.44-.74,5.2.9,7.53,18.36-2.17,24.26-6.46,25.69-18.81-7.48-.74-14.44,1.47-21.47,3.41-2.74.76-5.42,2.91-8.52,1.08l.28-.17-.18.3c-7,7.3-17.83,9.2-25.45,16.88,3.86,1.22,6-.68,8.32-1.6C159.45,62.16,165.9,58.38,173.09,56.37Zm51.56,43c-.29,4.43-3.25,7.71-5.06,11.47-3.27,6.82-6.85,13.48-10.6,20.78h11.77L243,88.17h-11c-3.47,3.52-3.51,8.73-7.56,11.32l5.39-12.61c-12,0-23.29.87-34.36-.25-10.71-1.08-16.29,5.93-24.82,11.68l18.62.94c-6.11,11.65-11.92,22.7-18,34.33H185.5c5.63-11.73,11.18-23.32,16.4-34.21C210.05,99.37,217.34,99.37,224.65,99.35ZM336.1,47.75l-.14.08c.45,3.47-2.66,3.2-4.43,3.71-2.62.77-5.47.73-8.64,1.08-1.42,8.31-6.25,15.29-8.33,23.29l-.28-.17.12.3c2.05-2.15,4.74-1.82,7.35-2,6.36-.43,12.74.8,19.09-.49,4.69-1,8.35-3.4,8.86-8.17,1.22-11.54-.11-22.69-9.12-31.18C325.5,20,306,12.87,285.71,27.46a10.57,10.57,0,0,1-1.45.85c-11.64,5.83-12.43,7.63-8.67,20.12-4.75,6.76-12.59,7.42-21.12,9.22,10.09,3.53,15.57,2.59,23-3.21,2.05-1.61,3.92-3.21,6.81-3.53,12.19-1.35,14.64-5.46,10.29-16.66a8.34,8.34,0,0,1-.26-1.49c2,.39,2,3,4,3.11,2.24-1.35,3.61-3.56,5.16-5.49,2.36,1.31,4.64,1.85,7.3.57l3.09-5.73v6.05c1.58,3.26,4.34,3.67,6.71,4.7l-.09-.09C320.74,48,326.76,52.57,336.1,47.75ZM112.47,121a30.28,30.28,0,0,0-4.78,11c14.16,0,27.85.4,41.51-.11,14.3-.54,29.26-13.55,32.45-28H136.82c5.44-5.25,11.91-6.12,18.3-5.11,11.7,1.85,19.42-4.27,27.55-12.31-14.86-1.17-28.9-2.45-42.53,2.34C127.88,93.13,120.3,102.2,115,115.5h45.19c0,.89.05,1.77.08,2.66C144.91,122.63,129,120,112.47,121Zm170.24,9.52c15.61-.17,30.21,1.27,44.7-.35,13.83-1.54,26.93-13.7,29.82-26.23-21.37-2-29.4-.07-38.84,10.08H338.3c-3.86,6.18-21.49,8.09-36.86,4.79C307,100.11,315,95.33,337.62,97.68L352.68,88l-.45-1.74c-8.38,0-16.76-.16-25.14,0s-16.43,2.81-22.57,8.8C294.57,104.83,289.3,117.47,282.71,130.47Zm-222,22c5.24,1,8.93,1.67,12.58,2.48,18.57,4.12,35.93,11.93,54,17.77,10.14,3.28,20.38,2.93,30.46-.06,8.63-2.56,13-9.5,12.39-18.43-.46-6.5-5.65-11-14.5-12.59-12.4-2.22-24.81.19-37.27-.12,8.72,4.4,18.2,6.3,28.08,8.87-3.69,4.92-8.33,6.34-13.54,6.31-11.5-.06-22.76-2.26-34.07-4.07C86.57,150.65,74.32,149.41,60.74,152.46ZM274.1,112.74,252.92,88.17H245c-7.23,14.22-14.45,28.42-22.05,43.35h11.49L249,104.46l24.25,26.87a15,15,0,0,0,6.83-.24c7.61-14.45,15.31-29.08,23.25-44.18H287.65C283.17,95.45,278.77,103.85,274.1,112.74Zm-97.94,73.07c-29.6,15.54-59.53,7.79-85.62-22.25-3.55-.6-7.11-2.7-11.78-2.46,8.31,11.33,17.1,21.27,28.06,29,22,15.64,44.91,17.37,68.52,3.53,1.72-1,3.86-1.65,4.43-3.95C179.33,187.9,178.09,186.82,176.16,185.81ZM94.19,80.2l.11.89c6,1.27,12,2.63,18.06,3.77,6.45,1.22,10-.51,11.92-5.47,2.13-5.61.33-10.88-5.24-13.72-6.49-3.31-13.27-4.83-20.58-2.38-4.07,1.36-8.32,2.16-12.51,3.14-9,2.11-18.26,3.09-27.44,4.81A53.94,53.94,0,0,0,82.58,74c5-.54,10.06-1.2,15.1-1.31,4.13-.09,8.35.39,11.36,4.65Zm78.49,59c17.12,7.54,35.43,6.68,45.56-1.72H199.81c5.28-11.14,10.27-21.67,15.39-32.49a38.79,38.79,0,0,0-11.07-.06l-17.24,34.27Zm109-82.5c7.54,5,25.84,6.37,34.91,2.58a22.19,22.19,0,0,1,2.9-8.89A18.8,18.8,0,0,1,316,39.51a18.41,18.41,0,0,1-2.89-2,18.62,18.62,0,0,1-2-2.64c-7.69,1-9.54,2.57-11.24,9-2.16,8.13-5.72,11.07-14.15,11.77C284.47,55.72,283.05,55.14,281.69,56.73ZM98.48,166.61c13.72,16.91,31.5,23.12,44.42,16.11,7.43,2,14.83,2.6,23.53-1.38-5,.4-8.54.84-12.06.92-6.58.16-6.58.07-9.68-1.7,6.23-.74,6.23-.74,8.56-2.55C133.71,180.68,116.86,172,98.48,166.61Zm213-99.12c-13,.32-25.12-1.46-36.32-7.16l-9.66,4.16c14.1,6.92,27.81,10.86,42.43,9.92C309.65,72.18,310.94,70.41,311.5,67.49ZM224.08,141.3c-18,7.3-36.25,6.56-55,2.14,3.39,2.86,4.5,6.67,5.8,10.49C192.43,153.31,209.26,151.6,224.08,141.3Zm-38-61.09h64.75C229.16,74.15,207.53,73.93,186.12,80.21ZM188,160c19.19.9,48.34-8.52,55.3-19.06h-8.25C221.14,151.83,204.7,156.18,188,160ZM125.46,82.81c15.64-7.65,30.31-7.24,45.24-4.72C157,70.9,142.23,71,126.85,70.69,128.62,74.87,127.93,78.24,125.46,82.81Zm114.88-8c-18.7-6-37.38-8.61-56.59-.82,2,3.13,4.29,3,7.05,2.18A84.2,84.2,0,0,1,215.27,73C223.72,73,232,74.19,240.34,74.81Zm-33.85,88.78c19.68-.46,36.3-7.61,50.26-22.29a13.92,13.92,0,0,0-7.45,0C238,154.17,222.22,158.81,206.49,163.59ZM277.43,94c2.36-4.93,4.28-8.93,6.28-13.08h19.21a107.07,107.07,0,0,0-13.81-2.07c-4.74-.5-9.47-2.21-14.31-.4C273.57,83.79,275,88.53,277.43,94Zm-47.71-47.4c5.14,2.94,10.11,6.49,18,5.24A44.13,44.13,0,0,0,229.72,46.56Zm-74.39,89.78-.07.93L161,138c1.09-1,2.23-1.71,1.46-3.65Z" fill="#fff"/>
    <path d="M217.18,180.25c-2.87,5.35-7.35,9.14-12.25,12.52l-.37-.35,12.16-12.56Z" fill="#fff"/>
    <path d="M198.05,198.32a17.83,17.83,0,0,1-6.81,5.57l-.3-.33a16.48,16.48,0,0,1,6.78-5.62Z" fill="#fff"/>
    <path d="M203.58,193.69a10.84,10.84,0,0,1-5.53,4.63l-.33-.38a11.71,11.71,0,0,1,5.68-4.44Z" fill="#fff"/>
    <path d="M369,5.85c1.74,0,1.14,1.27,1.24,2.17l.12-.11c-1.35-.18-1.31-1.16-1.23-2.15Z" fill="#fff"/>
    <path d="M369.15,5.76l-1.08-1.28c1.4.17,1.34.69.95,1.36Z" fill="#fff"/>
    <path d="M92,122.8l.22-.86c.69.66.2.72-.33.76Z" fill="#fff"/>
    <path d="M251.7,153.93l.3.23s-.37-.31-.38-.34S251.7,153.93,251.7,153.93Z" fill="#fff"/>
    <path d="M41.8,158.14l.25.32a1.8,1.8,0,0,1-.23-.2S41.8,158.14,41.8,158.14Z" fill="#fff"/>
    <path d="M361.49,61c0-.22.06-.43.06-.42a3.2,3.2,0,0,0-.19.31Z" fill="#fff"/>
    <path d="M204.93,192.77a1.16,1.16,0,0,1-1.35.92l-.18-.19c0-.74.47-1.05,1.16-1.08Z" fill="#fff"/>
    <path d="M279.86,48.36c-6-7.18-4.17-13.61,5.9-16.79C278.59,36.51,276.7,41.73,279.86,48.36Z" fill="#fff"/>
    <path d="M323.63,35.56l-3.14.33.08.08a2.46,2.46,0,0,1,2.95-.33Z" fill="#fff"/>
    <path d="M336.1,47.75l-.1.31.25-.05-.3-.17Z" fill="#fff"/>
    <path d="M323.52,35.64l.06-.32a2,2,0,0,0,0,.24Z" fill="#fff"/>
    <path d="M159.4,155.08c5.7,3.41,6,7.49,1.18,10.94-4.15,2.95-9,3.72-13.92,3.64a108.56,108.56,0,0,1-32.44-5.83c6.06-.38,11.92,1.16,17.81,2.07a80.81,80.81,0,0,0,14.55.95C155.41,166.62,158.12,164.16,159.4,155.08Z" fill="#fff"/>
    <path d="M119.44,79.47c2.87-3,1.36-6.36.71-9.64l-.12.1c3.36.42,3.54,3.13,3.15,5.37-.3,1.7-.06,4.94-3.68,4.06Z" fill="#fff"/>
    <path d="M120.15,69.83l-.2-.1.08.2Z" fill="#fff"/>
    <path d="M119.5,79.36l.16.26-.22-.15Z" fill="#fff"/>
    <path d="M174.64,54.6c.11,1.2-.26,1.93-1.65,1.66l.1.11,1.64-1.72Z" fill="#fff"/>
    <path d="M174.73,54.65h0c.83.22.4.11-.06,0Z" fill="#fff"/>
    <path d="M201.17,187l10.33-10.32A18,18,0,0,1,201.17,187Z" fill="#fff"/>
  </g>
</svg>
